<svg version="1.1" viewBox="0.0 0.0 140.501312335958 140.249343832021" fill="none" stroke="none" stroke-linecap="square" stroke-miterlimit="10" xmlns:xlink="http://www.w3.org/1999/xlink" xmlns="http://www.w3.org/2000/svg"><clipPath id="p.0"><path d="m0 0l140.50131 0l0 140.24934l-140.50131 0l0 -140.24934z" clip-rule="nonzero"/></clipPath><g clip-path="url(#p.0)"><path fill="#000000" fill-opacity="0.0" d="m0 0l140.50131 0l0 140.24934l-140.50131 0z" fill-rule="evenodd"/><path fill="#000000" fill-opacity="0.0" d="m4.482046 70.731476l0 0c0 -36.581253 29.654966 -66.23622 66.23622 -66.23622l0 0c17.566933 0 34.414375 6.978439 46.836075 19.400139c12.4217 12.4217 19.400139 29.269142 19.400139 46.83608l0 0c0 36.581253 -29.65496 66.23622 -66.23621 66.23622l0 0c-36.581257 0 -66.23622 -29.654968 -66.23622 -66.23622z" fill-rule="evenodd"/><path stroke="#f3f3f3" stroke-width="1.0" stroke-linejoin="round" stroke-linecap="butt" d="m4.482046 70.731476l0 0c0 -36.581253 29.654966 -66.23622 66.23622 -66.23622l0 0c17.566933 0 34.414375 6.978439 46.836075 19.400139c12.4217 12.4217 19.400139 29.269142 19.400139 46.83608l0 0c0 36.581253 -29.65496 66.23622 -66.23621 66.23622l0 0c-36.581257 0 -66.23622 -29.654968 -66.23622 -66.23622z" fill-rule="evenodd"/><path fill="#000000" fill-opacity="0.0" d="m15.3819 104.81268l56.094486 -87.779526l56.09449 87.779526z" fill-rule="evenodd"/><path stroke="#f3f3f3" stroke-width="2.0" stroke-linejoin="round" stroke-linecap="butt" d="m15.3819 104.81268l56.094486 -87.779526l56.09449 87.779526z" fill-rule="evenodd"/><path fill="#000000" fill-opacity="0.0" d="m14.071328 36.384758l56.09449 87.779526l56.09449 -87.779526z" fill-rule="evenodd"/><path stroke="#f3f3f3" stroke-width="2.0" stroke-linejoin="round" stroke-linecap="butt" d="m14.071328 36.384758l56.09449 87.779526l56.09449 -87.779526z" fill-rule="evenodd"/><path fill="#000000" fill-opacity="0.0" d="m105.13011 13.470203l-87.90551 55.98425l87.90551 55.984253z" fill-rule="evenodd"/><path stroke="#f3f3f3" stroke-width="2.0" stroke-linejoin="round" stroke-linecap="butt" d="m105.13011 13.470203l-87.90551 55.98425l87.90551 55.984253z" fill-rule="evenodd"/><path fill="#000000" fill-opacity="0.0" d="m36.90534 15.323442l87.90552 55.984253l-87.90552 55.984253z" fill-rule="evenodd"/><path stroke="#f3f3f3" stroke-width="2.0" stroke-linejoin="round" stroke-linecap="butt" d="m36.90534 15.323442l87.90552 55.984253l-87.90552 55.984253z" fill-rule="evenodd"/><path fill="#000000" fill-opacity="0.0" d="m95.3727 104.80052l39.874016 0l0 5.984253l-39.874016 0z" fill-rule="evenodd"/><path fill="#666666" d="m108.1858 109.91265q-0.453125 0 -0.703125 -0.1875q-0.25 -0.1875 -0.328125 -0.5625q0 -0.125 0.046875 -0.171875q0.0625 -0.0625 0.171875 -0.0625q0.125 0 0.171875 0.0625q0.046875 0.046875 0.0625 0.15625q0.046875 0.1875 0.171875 0.25q0.140625 0.0625 0.40625 0.0625l0.765625 0q0.34375 0 0.46875 -0.125q0.125 -0.125 0.125 -0.453125q0 -0.34375 -0.125 -0.46875q-0.125 -0.125 -0.46875 -0.125l-0.65625 0q-0.5 0 -0.75 -0.25q-0.234375 -0.25 -0.234375 -0.75q0 -0.5 0.234375 -0.734375q0.25 -0.25 0.75 -0.25l0.625 0q0.421875 0 0.65625 0.171875q0.25 0.171875 0.3125 0.53125q0.015625 0.109375 -0.046875 0.171875q-0.046875 0.0625 -0.171875 0.0625q-0.09375 0 -0.15625 -0.046875q-0.046875 -0.0625 -0.0625 -0.171875q-0.046875 -0.15625 -0.171875 -0.21875q-0.109375 -0.0625 -0.359375 -0.0625l-0.625 0q-0.328125 0 -0.4375 0.125q-0.109375 0.109375 -0.109375 0.421875q0 0.3125 0.109375 0.4375q0.125 0.109375 0.4375 0.109375l0.65625 0q0.53125 0 0.78125 0.265625q0.265625 0.25 0.265625 0.78125q0 0.53125 -0.265625 0.78125q-0.25 0.25 -0.78125 0.25l-0.765625 0zm3.7053833 0q-0.53125 0 -0.796875 -0.25q-0.25 -0.265625 -0.25 -0.796875l0 -0.609375q0 -0.53125 0.25 -0.78125q0.265625 -0.265625 0.796875 -0.265625l0.4375 0q0.390625 0 0.625 0.140625q0.234375 0.125 0.296875 0.40625q0.015625 0.109375 -0.046875 0.171875q-0.0625 0.0625 -0.171875 0.0625q-0.109375 0 -0.15625 -0.046875q-0.046875 -0.0625 -0.09375 -0.15625q-0.03125 -0.078125 -0.140625 -0.09375q-0.109375 -0.03125 -0.3125 -0.03125l-0.4375 0q-0.34375 -0.015625 -0.46875 0.109375q-0.125 0.125 -0.125 0.484375l0 0.609375q0 0.34375 0.125 0.46875q0.125 0.125 0.46875 0.125l0.4375 0q0.203125 0 0.3125 -0.015625q0.109375 -0.03125 0.140625 -0.109375q0.046875 -0.09375 0.09375 -0.140625q0.046875 -0.0625 0.15625 -0.0625q0.109375 0 0.171875 0.0625q0.0625 0.0625 0.046875 0.171875q-0.0625 0.28125 -0.296875 0.421875q-0.234375 0.125 -0.625 0.125l-0.4375 0zm3.20224 0q-0.53125 0 -0.796875 -0.25q-0.25 -0.265625 -0.25 -0.78125l0 -0.625q0 -0.53125 0.25 -0.78125q0.265625 -0.265625 0.796875 -0.265625l0.4375 0q0.53125 0 0.78125 0.265625q0.265625 0.25 0.265625 0.78125l0 0.609375q0 0.53125 -0.265625 0.796875q-0.25 0.25 -0.78125 0.25l-0.4375 0zm-0.59375 -1.03125q0 0.328125 0.125 0.453125q0.125 0.125 0.46875 0.125l0.4375 0q0.34375 0 0.46875 -0.125q0.125 -0.125 0.125 -0.46875l0 -0.609375q0 -0.34375 -0.125 -0.46875q-0.125 -0.125 -0.46875 -0.125l-0.4375 0q-0.234375 0 -0.359375 0.046875q-0.125 0.046875 -0.1875 0.1875q-0.046875 0.125 -0.046875 0.359375l0 0.625zm3.284317 2.09375q-0.234375 0 -0.234375 -0.21875l0 -3.328125q0 -0.21875 0.234375 -0.21875q0.21875 0 0.21875 0.21875l0 0.078125q0.140625 -0.15625 0.34375 -0.21875q0.21875 -0.078125 0.484375 -0.078125l0.203125 0q0.53125 0 0.78125 0.265625q0.265625 0.25 0.265625 0.78125l0 0.609375q0 0.53125 -0.265625 0.796875q-0.25 0.25 -0.78125 0.25l-1.03125 0l0 0.84375q0 0.21875 -0.21875 0.21875zm0.21875 -1.515625l1.03125 0q0.359375 0 0.46875 -0.125q0.125 -0.125 0.125 -0.46875l0 -0.609375q0 -0.34375 -0.125 -0.46875q-0.109375 -0.125 -0.46875 -0.125l-0.203125 0q-0.328125 0 -0.578125 0.078125q-0.234375 0.078125 -0.25 0.25l0 1.46875zm3.3809357 -0.71875l0 0.140625q0 0.328125 0.125 0.453125q0.125 0.125 0.46875 0.125l0.4375 0q0.265625 0 0.390625 -0.046875q0.140625 -0.046875 0.1875 -0.171875q0.03125 -0.109375 0.078125 -0.15625q0.046875 -0.0625 0.15625 -0.0625q0.109375 0 0.171875 0.0625q0.0625 0.0625 0.046875 0.171875q-0.0625 0.328125 -0.328125 0.5q-0.25 0.15625 -0.703125 0.15625l-0.4375 0q-0.53125 0 -0.796875 -0.25q-0.25 -0.265625 -0.25 -0.78125l0 -0.625q0 -0.546875 0.25 -0.796875q0.265625 -0.25 0.796875 -0.25l0.4375 0q0.53125 0 0.78125 0.265625q0.265625 0.25 0.265625 0.78125l0 0.265625q0 0.21875 -0.21875 0.21875l-1.859375 0zm0.59375 -1.078125q-0.34375 -0.015625 -0.46875 0.109375q-0.125 0.125 -0.125 0.484375l0 0.046875l1.625 0l0 -0.046875q0 -0.34375 -0.125 -0.46875q-0.125 -0.125 -0.46875 -0.125l-0.4375 0z" fill-rule="nonzero"/><path fill="#000000" fill-opacity="0.0" d="m12.8189335 104.80052l32.409447 0l0 5.984253l-32.409447 0z" fill-rule="evenodd"/><path fill="#666666" d="m24.083984 109.91265q-0.109375 0 -0.171875 -0.046875q-0.0625 -0.0625 -0.0625 -0.171875l0 -2.9375l-1.03125 0q-0.109375 0 -0.171875 -0.046875q-0.046875 -0.0625 -0.046875 -0.1875q0 -0.109375 0.046875 -0.15625q0.0625 -0.0625 0.171875 -0.0625l2.515625 0q0.109375 0 0.15625 0.0625q0.0625 0.046875 0.0625 0.15625q0 0.125 -0.0625 0.1875q-0.046875 0.046875 -0.15625 0.046875l-1.03125 0l0 2.9375q0 0.09375 -0.0625 0.15625q-0.046875 0.0625 -0.15625 0.0625zm2.4121246 0q-0.234375 0 -0.234375 -0.21875l0 -2.265625q0 -0.21875 0.234375 -0.21875q0.21875 0 0.21875 0.21875l0 2.265625q0 0.21875 -0.21875 0.21875zm0 -3.0q-0.234375 0 -0.234375 -0.265625l0 -0.140625q0 -0.25 0.234375 -0.25l0.15625 0q0.234375 0 0.234375 0.25l0 0.140625q0 0.265625 -0.234375 0.265625l-0.15625 0zm4.290205 0.296875q0.5 0 0.71875 0.234375q0.21875 0.234375 0.21875 0.796875l0 1.453125q0 0.21875 -0.21875 0.21875q-0.234375 0 -0.234375 -0.21875l0 -1.453125q0 -0.3125 -0.109375 -0.4375q-0.109375 -0.140625 -0.375 -0.140625l-0.21875 0q-0.3125 0 -0.4375 0.140625q-0.125 0.125 -0.125 0.4375l0 1.453125q0 0.21875 -0.234375 0.21875q-0.21875 0 -0.21875 -0.21875l0 -1.453125q0 -0.3125 -0.125 -0.4375q-0.109375 -0.140625 -0.375 -0.140625l-0.21875 0q-0.2968731 0 -0.4374981 0.140625q-0.125 0.125 -0.125 0.4375l0 1.453125q0 0.21875 -0.21875 0.21875q-0.234375 0 -0.234375 -0.21875l0 -2.265625q0 -0.21875 0.234375 -0.21875q0.21875 0 0.21875 0.21875l0 0.125q0.140625 -0.171875 0.3125 -0.25q0.171875 -0.09375 0.4062481 -0.09375l0.0625 0q0.328125 0 0.515625 0.09375q0.203125 0.09375 0.296875 0.296875q0.140625 -0.203125 0.296875 -0.296875q0.15625 -0.09375 0.40625 -0.09375l0.21875 0zm2.314577 1.53125l0 0.140625q0 0.328125 0.125 0.453125q0.125 0.125 0.46875 0.125l0.4375 0q0.265625 0 0.390625 -0.046875q0.140625 -0.046875 0.1875 -0.171875q0.03125 -0.109375 0.078125 -0.15625q0.046875 -0.0625 0.15625 -0.0625q0.109375 0 0.171875 0.0625q0.0625 0.0625 0.046875 0.171875q-0.0625 0.328125 -0.328125 0.5q-0.25 0.15625 -0.703125 0.15625l-0.4375 0q-0.53125 0 -0.796875 -0.25q-0.25 -0.265625 -0.25 -0.78125l0 -0.625q0 -0.546875 0.25 -0.796875q0.265625 -0.25 0.796875 -0.25l0.4375 0q0.53125 0 0.78125 0.265625q0.265625 0.25 0.265625 0.78125l0 0.265625q0 0.21875 -0.21875 0.21875l-1.859375 0zm0.59375 -1.078125q-0.34375 -0.015625 -0.46875 0.109375q-0.125 0.125 -0.125 0.484375l0 0.046875l1.625 0l0 -0.046875q0 -0.34375 -0.125 -0.46875q-0.125 -0.125 -0.46875 -0.125l-0.4375 0z" fill-rule="nonzero"/><path fill="#000000" fill-opacity="0.0" d="m43.225716 9.338583l56.503937 0l0 5.984252l-56.503937 0z" fill-rule="evenodd"/><path fill="#666666" d="m59.91603 14.466333q-0.078125 0.046875 -0.171875 0.03125q-0.078125 -0.015625 -0.125 -0.109375l-0.828125 -1.375l-0.75 0l0 1.21875q0 0.21875 -0.21875 0.21875q-0.234375 0 -0.234375 -0.21875l0 -3.171875q0 -0.21875 0.234375 -0.21875l1.25 0q0.484375 0 0.734375 0.265625q0.265625 0.25 0.265625 0.734375l0 0.15625q0 0.4375 -0.203125 0.6875q-0.1875 0.25 -0.5625 0.3125l0.703125 1.15625q0.09375 0.1875 -0.09375 0.3125zm-1.875 -1.90625l1.03125 0q0.296875 0 0.421875 -0.125q0.125 -0.125 0.125 -0.4375l0 -0.15625q0 -0.296875 -0.125 -0.421875q-0.125 -0.140625 -0.421875 -0.140625l-1.03125 0l0 1.28125zm3.2051086 0.71875l0 0.140625q0 0.328125 0.125 0.453125q0.125 0.125 0.46875 0.125l0.4375 0q0.265625 0 0.390625 -0.046875q0.140625 -0.046875 0.1875 -0.171875q0.03125 -0.109375 0.078125 -0.15625q0.046875 -0.0625 0.15625 -0.0625q0.109375 0 0.171875 0.0625q0.0625 0.0625 0.046875 0.171875q-0.0625 0.328125 -0.328125 0.5q-0.25 0.15625 -0.703125 0.15625l-0.4375 0q-0.53125 0 -0.796875 -0.25q-0.25 -0.265625 -0.25 -0.78125l0 -0.625q0 -0.546875 0.25 -0.796875q0.265625 -0.25 0.796875 -0.25l0.4375 0q0.53125 0 0.78125 0.265625q0.265625 0.25 0.265625 0.78125l0 0.265625q0 0.21875 -0.21875 0.21875l-1.859375 0zm0.59375 -1.078125q-0.34375 -0.015625 -0.46875 0.109375q-0.125 0.125 -0.125 0.484375l0 0.046875l1.625 0l0 -0.046875q0 -0.34375 -0.125 -0.46875q-0.125 -0.125 -0.46875 -0.125l-0.4375 0zm3.096817 2.25q-0.34375 0 -0.546875 -0.140625q-0.1875 -0.140625 -0.234375 -0.421875q-0.03125 -0.109375 0.03125 -0.171875q0.0625 -0.0625 0.1875 -0.0625q0.109375 0 0.15625 0.0625q0.046875 0.046875 0.078125 0.15625q0.03125 0.078125 0.109375 0.109375q0.078125 0.015625 0.21875 0.015625l0.875 0q0.203125 0 0.265625 -0.0625q0.078125 -0.0625 0.078125 -0.28125q0 -0.21875 -0.078125 -0.28125q-0.0625 -0.078125 -0.265625 -0.078125l-0.859375 0q-0.375 0 -0.578125 -0.1875q-0.1875 -0.203125 -0.1875 -0.578125q0 -0.390625 0.1875 -0.578125q0.1875 -0.203125 0.578125 -0.203125l0.828125 0q0.625 0 0.75 0.53125q0.015625 0.109375 -0.046875 0.171875q-0.0625 0.0625 -0.171875 0.0625q-0.109375 0 -0.15625 -0.046875q-0.046875 -0.0625 -0.078125 -0.15625q-0.03125 -0.078125 -0.109375 -0.09375q-0.0625 -0.015625 -0.1875 -0.015625l-0.828125 0q-0.203125 0 -0.265625 0.0625q-0.0625 0.0625 -0.0625 0.265625q0 0.1875 0.0625 0.265625q0.078125 0.0625 0.265625 0.0625l0.859375 0q0.40625 0 0.59375 0.203125q0.203125 0.1875 0.203125 0.59375q0 0.40625 -0.203125 0.609375q-0.1875 0.1875 -0.59375 0.1875l-0.875 0zm3.5367737 0q-0.53125 0 -0.796875 -0.25q-0.25 -0.265625 -0.25 -0.78125l0 -0.625q0 -0.53125 0.25 -0.78125q0.265625 -0.265625 0.796875 -0.265625l0.4375 0q0.53125 0 0.78125 0.265625q0.265625 0.25 0.265625 0.78125l0 0.609375q0 0.53125 -0.265625 0.796875q-0.25 0.25 -0.78125 0.25l-0.4375 0zm-0.59375 -1.03125q0 0.328125 0.125 0.453125q0.125 0.125 0.46875 0.125l0.4375 0q0.34375 0 0.46875 -0.125q0.125 -0.125 0.125 -0.46875l0 -0.609375q0 -0.34375 -0.125 -0.46875q-0.125 -0.125 -0.46875 -0.125l-0.4375 0q-0.234375 0 -0.359375 0.046875q-0.125 0.046875 -0.1875 0.1875q-0.046875 0.125 -0.046875 0.359375l0 0.625zm5.721817 -1.96875q0.234375 0 0.234375 0.21875l0 2.265625q0 0.21875 -0.234375 0.21875q-0.21875 0 -0.21875 -0.21875l0 -0.09375q-0.28125 0.3125 -0.828125 0.3125l-0.15625 0q-0.53125 0 -0.796875 -0.25q-0.25 -0.265625 -0.25 -0.796875l0 -1.4375q0 -0.21875 0.234375 -0.21875q0.21875 0 0.21875 0.21875l0 1.4375q0 0.34375 0.125 0.46875q0.125 0.125 0.46875 0.125l0.15625 0q0.3125 0 0.546875 -0.0625q0.25 -0.078125 0.28125 -0.234375l0 -1.734375q0 -0.21875 0.21875 -0.21875zm1.0897522 3.0q-0.234375 0 -0.234375 -0.21875l0 -2.265625q0 -0.21875 0.234375 -0.21875q0.21875 0 0.21875 0.21875l0 0.21875q0.15625 -0.21875 0.390625 -0.328125q0.25 -0.109375 0.5625 -0.109375q0.234375 0 0.234375 0.21875q0 0.234375 -0.234375 0.234375q-0.453125 0 -0.703125 0.171875q-0.234375 0.171875 -0.25 0.4375l0 1.421875q0 0.21875 -0.21875 0.21875zm2.855957 0q-0.53125 0 -0.796875 -0.25q-0.25 -0.265625 -0.25 -0.796875l0 -0.609375q0 -0.53125 0.25 -0.78125q0.265625 -0.265625 0.796875 -0.265625l0.4375 0q0.390625 0 0.625 0.140625q0.234375 0.125 0.296875 0.40625q0.015625 0.109375 -0.046875 0.171875q-0.0625 0.0625 -0.171875 0.0625q-0.109375 0 -0.15625 -0.046875q-0.046875 -0.0625 -0.09375 -0.15625q-0.03125 -0.078125 -0.140625 -0.09375q-0.109375 -0.03125 -0.3125 -0.03125l-0.4375 0q-0.34375 -0.015625 -0.46875 0.109375q-0.125 0.125 -0.125 0.484375l0 0.609375q0 0.34375 0.125 0.46875q0.125 0.125 0.46875 0.125l0.4375 0q0.203125 0 0.3125 -0.015625q0.109375 -0.03125 0.140625 -0.109375q0.046875 -0.09375 0.09375 -0.140625q0.046875 -0.0625 0.15625 -0.0625q0.109375 0 0.171875 0.0625q0.0625 0.0625 0.046875 0.171875q-0.0625 0.28125 -0.296875 0.421875q-0.234375 0.125 -0.625 0.125l-0.4375 0zm2.60849 -1.171875l0 0.140625q0 0.328125 0.125 0.453125q0.125 0.125 0.46875 0.125l0.4375 0q0.265625 0 0.390625 -0.046875q0.140625 -0.046875 0.1875 -0.171875q0.03125 -0.109375 0.078125 -0.15625q0.046875 -0.0625 0.15625 -0.0625q0.109375 0 0.171875 0.0625q0.0625 0.0625 0.046875 0.171875q-0.0625 0.328125 -0.328125 0.5q-0.25 0.15625 -0.703125 0.15625l-0.4375 0q-0.53125 0 -0.796875 -0.25q-0.25 -0.265625 -0.25 -0.78125l0 -0.625q0 -0.546875 0.25 -0.796875q0.265625 -0.25 0.796875 -0.25l0.4375 0q0.53125 0 0.78125 0.265625q0.265625 0.25 0.265625 0.78125l0 0.265625q0 0.21875 -0.21875 0.21875l-1.859375 0zm0.59375 -1.078125q-0.34375 -0.015625 -0.46875 0.109375q-0.125 0.125 -0.125 0.484375l0 0.046875l1.625 0l0 -0.046875q0 -0.34375 -0.125 -0.46875q-0.125 -0.125 -0.46875 -0.125l-0.4375 0zm3.096817 2.25q-0.34375 0 -0.546875 -0.140625q-0.1875 -0.140625 -0.234375 -0.421875q-0.03125 -0.109375 0.03125 -0.171875q0.0625 -0.0625 0.1875 -0.0625q0.109375 0 0.15625 0.0625q0.046875 0.046875 0.078125 0.15625q0.03125 0.078125 0.109375 0.109375q0.078125 0.015625 0.21875 0.015625l0.875 0q0.203125 0 0.265625 -0.0625q0.078125 -0.0625 0.078125 -0.28125q0 -0.21875 -0.078125 -0.28125q-0.0625 -0.078125 -0.265625 -0.078125l-0.859375 0q-0.375 0 -0.578125 -0.1875q-0.1875 -0.203125 -0.1875 -0.578125q0 -0.390625 0.1875 -0.578125q0.1875 -0.203125 0.578125 -0.203125l0.828125 0q0.625 0 0.75 0.53125q0.015625 0.109375 -0.046875 0.171875q-0.0625 0.0625 -0.171875 0.0625q-0.109375 0 -0.15625 -0.046875q-0.046875 -0.0625 -0.078125 -0.15625q-0.03125 -0.078125 -0.109375 -0.09375q-0.0625 -0.015625 -0.1875 -0.015625l-0.828125 0q-0.203125 0 -0.265625 0.0625q-0.0625 0.0625 -0.0625 0.265625q0 0.1875 0.0625 0.265625q0.078125 0.0625 0.265625 0.0625l0.859375 0q0.40625 0 0.59375 0.203125q0.203125 0.1875 0.203125 0.59375q0 0.40625 -0.203125 0.609375q-0.1875 0.1875 -0.59375 0.1875l-0.875 0z" fill-rule="nonzero"/><path fill="#000000" fill-opacity="0.0" d="m43.53806 64.603676l54.3622 0l0 9.700783l-54.3622 0z" fill-rule="evenodd"/><path fill="#434343" d="m61.471962 66.41282l-2.625 0l0 -0.671875l6.03125 0l0 0.671875l-2.625 0l0 6.78125l-0.78125 0l0 -6.78125zm7.44487 -0.671875q1.4375 0 2.234375 0.6875q0.8125 0.671875 0.8125 1.859375q0 1.203125 -0.8125 1.875q-0.796875 0.671875 -2.234375 0.671875l-2.0 0l0 2.359375l-0.78125 0l0 -7.453125l2.78125 0zm-0.015625 4.40625q1.109375 0 1.6875 -0.484375q0.59375 -0.484375 0.59375 -1.375q0 -0.90625 -0.59375 -1.390625q-0.578125 -0.484375 -1.6875 -0.484375l-1.984375 0l0 3.734375l1.984375 0zm12.528961 -4.40625l0 7.453125l-0.765625 0l0 -5.96875l-2.921875 5.015625l-0.375 0l-2.9375 -4.984375l0 5.9375l-0.75 0l0 -7.453125l0.640625 0l3.25 5.53125l3.203125 -5.53125l0.65625 0z" fill-rule="nonzero"/><path fill="#000000" fill-opacity="0.0" d="m48.800526 56.435696l45.35433 0l0 4.8188972l-45.35433 0z" fill-rule="evenodd"/><path fill="#666666" d="m61.898293 60.965145q-0.234375 0 -0.234375 -0.21875l0 -3.171875q0 -0.21875 0.234375 -0.21875l1.390625 0q0.421875 0 0.640625 0.21875q0.234375 0.21875 0.234375 0.640625l0 0.140625q0 0.359375 -0.21875 0.5625q0.421875 0.234375 0.421875 0.859375l0 0.1875q0 0.484375 -0.265625 0.75q-0.265625 0.25 -0.75 0.25l-1.453125 0zm0.21875 -0.453125l1.234375 0q0.296875 0 0.421875 -0.125q0.140625 -0.125 0.140625 -0.421875l0 -0.1875q0 -0.296875 -0.125 -0.421875q-0.125 -0.125 -0.4375 -0.125l-1.234375 0l0 1.28125zm0 -1.71875l1.265625 0q0.1875 0 0.25 -0.125q0.078125 -0.125 0.078125 -0.3125l0 -0.140625q0 -0.234375 -0.09375 -0.328125q-0.09375 -0.09375 -0.328125 -0.09375l-1.171875 0l0 1.0zm3.4608612 1.0l0 0.140625q0 0.328125 0.125 0.453125q0.125 0.125 0.46875 0.125l0.4375 0q0.265625 0 0.390625 -0.046875q0.140625 -0.046875 0.1875 -0.171875q0.03125 -0.109375 0.078125 -0.15625q0.046875 -0.0625 0.15625 -0.0625q0.109375 0 0.171875 0.0625q0.0625 0.0625 0.046875 0.171875q-0.0625 0.328125 -0.328125 0.5q-0.25 0.15625 -0.703125 0.15625l-0.4375 0q-0.53125 0 -0.796875 -0.25q-0.25 -0.265625 -0.25 -0.78125l0 -0.625q0 -0.546875 0.25 -0.796875q0.265625 -0.25 0.796875 -0.25l0.4375 0q0.53125 0 0.78125 0.265625q0.265625 0.25 0.265625 0.78125l0 0.265625q0 0.21875 -0.21875 0.21875l-1.859375 0zm0.59375 -1.078125q-0.34375 -0.015625 -0.46875 0.109375q-0.125 0.125 -0.125 0.484375l0 0.046875l1.625 0l0 -0.046875q0 -0.34375 -0.125 -0.46875q-0.125 -0.125 -0.46875 -0.125l-0.4375 0zm2.690567 2.25q-0.234375 0 -0.234375 -0.21875l0 -2.265625q0 -0.21875 0.234375 -0.21875q0.21875 0 0.21875 0.21875l0 2.265625q0 0.21875 -0.21875 0.21875zm0 -3.0q-0.234375 0 -0.234375 -0.265625l0 -0.140625q0 -0.25 0.234375 -0.25l0.15625 0q0.234375 0 0.234375 0.25l0 0.140625q0 0.265625 -0.234375 0.265625l-0.15625 0zm1.5558319 3.0q-0.234375 0 -0.234375 -0.21875l0 -2.265625q0 -0.21875 0.234375 -0.21875q0.21875 0 0.21875 0.21875l0 0.09375q0.28125 -0.3125 0.828125 -0.3125l0.15625 0q0.53125 0 0.78125 0.265625q0.265625 0.25 0.265625 0.78125l0 1.4375q0 0.21875 -0.234375 0.21875q-0.21875 0 -0.21875 -0.21875l0 -1.4375q0 -0.34375 -0.125 -0.46875q-0.125 -0.125 -0.46875 -0.125l-0.15625 0q-0.3125 0 -0.5625 0.078125q-0.234375 0.0625 -0.265625 0.21875l0 1.734375q0 0.21875 -0.21875 0.21875zm3.9335022 1.0625q-0.3125 0 -0.5 -0.140625q-0.1875 -0.125 -0.234375 -0.390625q-0.03125 -0.109375 0.03125 -0.171875q0.0625 -0.0625 0.1875 -0.0625q0.09375 0 0.140625 0.046875q0.046875 0.0625 0.078125 0.171875q0.03125 0.0625 0.09375 0.078125q0.078125 0.03125 0.203125 0.03125l1.0 0q0.203125 0 0.25 -0.0625q0.0625 -0.0625 0.0625 -0.265625l0 -0.625q-0.140625 0.15625 -0.359375 0.25q-0.203125 0.078125 -0.46875 0.078125l-0.203125 0q-0.53125 0 -0.796875 -0.25q-0.25 -0.265625 -0.25 -0.78125l0 -0.625q0 -0.53125 0.25 -0.78125q0.265625 -0.265625 0.796875 -0.265625l0.4375 0q0.1875 0 0.328125 0.0625q0.15625 0.046875 0.265625 0.171875l0 -0.015625q0 -0.21875 0.234375 -0.21875q0.21875 0 0.21875 0.21875l0 2.78125q0 0.390625 -0.1875 0.578125q-0.1875 0.1875 -0.578125 0.1875l-1.0 0zm0.28125 -1.515625l0.203125 0q0.359375 0 0.59375 -0.078125q0.234375 -0.09375 0.234375 -0.28125l0 -1.0625q0 -0.21875 -0.15625 -0.296875q-0.15625 -0.078125 -0.4375 -0.078125l-0.4375 0q-0.34375 0 -0.46875 0.125q-0.125 0.109375 -0.125 0.46875l0 0.625q0 0.328125 0.125 0.453125q0.125 0.125 0.46875 0.125zm4.047592 0.4375q-0.21875 -0.09375 -0.140625 -0.296875l1.28125 -3.125q0.078125 -0.171875 0.25 -0.171875l0 0q0.171875 0 0.234375 0.171875l1.296875 3.125q0.078125 0.203125 -0.125 0.296875q-0.21875 0.078125 -0.296875 -0.125l-0.28125 -0.703125l-1.65625 0l-0.28125 0.703125q-0.078125 0.203125 -0.28125 0.125zm0.734375 -1.28125l1.296875 0l-0.65625 -1.609375l-0.640625 1.609375z" fill-rule="nonzero"/></g></svg>