<svg width="423" height="424" viewBox="0 0 423 424" fill="none" xmlns="http://www.w3.org/2000/svg">
<path fill-rule="evenodd" clip-rule="evenodd" d="M4.49049 211.661C4.49919 97.2463 97.1304 4.49524 211.388 4.49524C266.257 4.49524 318.876 26.3215 357.671 65.1726C396.466 104.024 418.258 156.717 418.254 211.661C418.246 326.075 325.614 418.826 211.357 418.826C97.0989 418.826 4.4818 326.075 4.4905 211.661H4.49049Z" stroke="white" stroke-width="2" stroke-miterlimit="10" stroke-linejoin="round"/>
<path fill-rule="evenodd" clip-rule="evenodd" d="M38.548 318.191L213.713 43.7026L388.879 318.191H38.548Z" stroke="white" stroke-width="2" stroke-miterlimit="10" stroke-linejoin="round"/>
<path fill-rule="evenodd" clip-rule="evenodd" d="M34.4549 104.225L209.62 378.713L384.786 104.225H34.4549Z" stroke="white" stroke-width="2" stroke-miterlimit="10" stroke-linejoin="round"/>
<path fill-rule="evenodd" clip-rule="evenodd" d="M318.823 32.5609L44.303 207.663L318.823 382.766V32.5609Z" stroke="white" stroke-width="2" stroke-miterlimit="10" stroke-linejoin="round"/>
<path fill-rule="evenodd" clip-rule="evenodd" d="M105.79 38.3561L380.31 213.458L105.79 388.561V38.3561Z" stroke="white" stroke-width="2" stroke-miterlimit="10" stroke-linejoin="round"/>
<path d="M327.264 346.76C325.858 346.76 324.494 346.509 323.175 346.008C321.855 345.49 320.797 344.822 320 344.003L321.401 339.818C322.172 340.57 323.081 341.18 324.127 341.648C325.185 342.099 326.243 342.324 327.302 342.324C328.472 342.324 329.337 342.09 329.897 341.622C330.458 341.155 330.738 340.537 330.738 339.768C330.738 339.183 330.57 338.707 330.234 338.34C329.91 337.955 329.487 337.655 328.964 337.437C328.441 337.203 327.737 336.953 326.853 336.686C325.496 336.251 324.382 335.817 323.511 335.382C322.652 334.948 321.911 334.255 321.289 333.302C320.666 332.333 320.355 331.055 320.355 329.468C320.355 328.065 320.635 326.803 321.195 325.684C321.755 324.548 322.602 323.654 323.735 323.002C324.868 322.334 326.25 322 327.881 322C329.013 322 330.121 322.184 331.205 322.551C332.3 322.919 333.259 323.445 334.08 324.13L332.792 328.34C331.149 327.087 329.505 326.461 327.862 326.461C326.704 326.461 325.845 326.711 325.285 327.213C324.737 327.714 324.463 328.374 324.463 329.192C324.463 330.011 324.781 330.621 325.416 331.022C326.05 331.423 327.028 331.815 328.347 332.2C329.704 332.634 330.812 333.068 331.671 333.503C332.543 333.937 333.29 334.622 333.912 335.558C334.535 336.493 334.846 337.755 334.846 339.342C334.846 340.712 334.56 341.965 333.987 343.101C333.414 344.22 332.555 345.114 331.41 345.783C330.277 346.434 328.895 346.76 327.264 346.76ZM344.013 346.635C342.556 346.635 341.243 346.234 340.072 345.432C338.915 344.613 338.006 343.485 337.346 342.049C336.699 340.612 336.375 338.983 336.375 337.162C336.375 335.341 336.699 333.712 337.346 332.275C338.006 330.838 338.915 329.719 340.072 328.917C341.243 328.098 342.556 327.689 344.013 327.689C345.457 327.689 346.721 328.098 347.804 328.917C348.887 329.719 349.671 330.871 350.157 332.375L347.075 334.58C346.366 332.893 345.339 332.049 343.994 332.049C342.961 332.049 342.102 332.509 341.417 333.428C340.732 334.347 340.39 335.591 340.39 337.162C340.39 338.732 340.732 339.977 341.417 340.896C342.102 341.798 342.961 342.249 343.994 342.249C345.351 342.249 346.378 341.405 347.075 339.718L350.157 341.973C349.671 343.444 348.887 344.588 347.804 345.407C346.721 346.225 345.457 346.635 344.013 346.635ZM358.806 346.635C357.362 346.635 356.061 346.234 354.903 345.432C353.758 344.613 352.861 343.485 352.214 342.049C351.579 340.612 351.261 338.983 351.261 337.162C351.261 335.341 351.579 333.712 352.214 332.275C352.861 330.838 353.758 329.719 354.903 328.917C356.061 328.098 357.362 327.689 358.806 327.689C360.25 327.689 361.538 328.098 362.671 328.917C363.817 329.719 364.707 330.838 365.342 332.275C365.989 333.712 366.313 335.341 366.313 337.162C366.313 338.983 365.989 340.612 365.342 342.049C364.707 343.485 363.817 344.613 362.671 345.432C361.538 346.234 360.25 346.635 358.806 346.635ZM358.806 342.249C359.827 342.249 360.661 341.79 361.308 340.871C361.968 339.952 362.298 338.715 362.298 337.162C362.298 335.608 361.968 334.372 361.308 333.453C360.661 332.517 359.827 332.049 358.806 332.049C357.785 332.049 356.938 332.517 356.266 333.453C355.606 334.372 355.276 335.608 355.276 337.162C355.276 338.715 355.606 339.952 356.266 340.871C356.938 341.79 357.785 342.249 358.806 342.249ZM377.071 327.689C378.353 327.689 379.517 328.081 380.563 328.867C381.609 329.652 382.424 330.763 383.009 332.2C383.607 333.62 383.906 335.274 383.906 337.162C383.906 339.05 383.607 340.712 383.009 342.149C382.424 343.569 381.609 344.672 380.563 345.457C379.517 346.242 378.353 346.635 377.071 346.635C375.328 346.635 373.952 345.891 372.944 344.404V353H368.966V327.964H372.776V330.07C373.759 328.482 375.191 327.689 377.071 327.689ZM376.38 342.249C377.401 342.249 378.241 341.79 378.901 340.871C379.561 339.952 379.891 338.715 379.891 337.162C379.891 335.608 379.561 334.372 378.901 333.453C378.241 332.517 377.401 332.049 376.38 332.049C375.371 332.049 374.537 332.517 373.877 333.453C373.218 334.372 372.888 335.608 372.888 337.162C372.888 338.715 373.218 339.952 373.877 340.871C374.537 341.79 375.371 342.249 376.38 342.249ZM400 337.237C400 337.304 399.975 337.78 399.925 338.665H389.542C389.729 339.801 390.171 340.704 390.868 341.372C391.565 342.023 392.431 342.349 393.464 342.349C394.186 342.349 394.821 342.207 395.369 341.923C395.917 341.639 396.427 341.188 396.9 340.57L399.029 343.652C397.734 345.641 395.848 346.635 393.371 346.635C391.827 346.635 390.457 346.234 389.262 345.432C388.067 344.613 387.146 343.485 386.498 342.049C385.864 340.612 385.546 338.983 385.546 337.162C385.546 335.357 385.864 333.737 386.498 332.3C387.133 330.846 388.005 329.719 389.113 328.917C390.233 328.098 391.478 327.689 392.848 327.689C394.192 327.689 395.406 328.081 396.489 328.867C397.585 329.635 398.444 330.746 399.066 332.2C399.689 333.636 400 335.316 400 337.237ZM392.885 331.724C391.976 331.724 391.217 332.066 390.607 332.751C389.997 333.436 389.623 334.372 389.486 335.558H396.246C396.11 334.388 395.736 333.461 395.126 332.776C394.516 332.074 393.769 331.724 392.885 331.724Z" fill="white"/>
<path d="M39.9602 328.165H34V323.828H50.2251V328.165H44.2648V346.736H39.9602V328.165ZM51.9233 329.147H56.0721V346.736H51.9233V329.147ZM53.988 326.679C53.2349 326.679 52.6181 326.408 52.1376 325.865C51.6571 325.321 51.4169 324.642 51.4169 323.828C51.4169 323.029 51.6571 322.358 52.1376 321.815C52.6181 321.272 53.2349 321 53.988 321C54.7541 321 55.3774 321.264 55.8579 321.791C56.3383 322.302 56.5786 322.949 56.5786 323.732C56.5786 324.594 56.3383 325.305 55.8579 325.865C55.3774 326.408 54.7541 326.679 53.988 326.679ZM78.2548 328.884C80.0468 328.884 81.4687 329.531 82.5205 330.825C83.5723 332.119 84.0982 334.068 84.0982 336.672V346.736H79.9494V337.439C79.9494 336.049 79.7157 335.01 79.2482 334.324C78.7807 333.637 78.112 333.293 77.242 333.293C76.2681 333.293 75.4955 333.684 74.9241 334.467C74.3528 335.234 74.0671 336.376 74.0671 337.894V346.736H69.9378V337.439C69.9378 334.675 69.0288 333.293 67.2109 333.293C66.263 333.293 65.5033 333.684 64.932 334.467C64.3606 335.234 64.0749 336.376 64.0749 337.894V346.736H59.9262V329.147H63.8996V331.16C64.432 330.425 65.0813 329.866 65.8474 329.483C66.6136 329.084 67.4576 328.884 68.3796 328.884C69.3924 328.884 70.3079 329.131 71.1259 329.627C71.944 330.106 72.5998 330.817 73.0932 331.759C73.6775 330.833 74.4177 330.122 75.3137 329.627C76.2097 329.131 77.1901 328.884 78.2548 328.884ZM102 338.014C102 338.078 101.974 338.533 101.922 339.38H91.0924C91.2872 340.466 91.7481 341.329 92.4753 341.968C93.2025 342.591 94.105 342.902 95.1827 342.902C95.9359 342.902 96.5981 342.767 97.1695 342.495C97.7408 342.223 98.2732 341.792 98.7667 341.201L100.987 344.148C99.6367 346.049 97.6694 347 95.0854 347C93.4752 347 92.0468 346.617 90.8002 345.85C89.5536 345.067 88.5927 343.989 87.9175 342.615C87.2552 341.241 86.9241 339.683 86.9241 337.942C86.9241 336.217 87.2552 334.667 87.9175 333.293C88.5797 331.903 89.4887 330.825 90.6444 330.058C91.8131 329.275 93.1116 328.884 94.54 328.884C95.9424 328.884 97.2084 329.259 98.3382 330.01C99.4809 330.745 100.377 331.807 101.026 333.197C101.675 334.571 102 336.177 102 338.014ZM94.5789 332.742C93.631 332.742 92.8389 333.069 92.2026 333.724C91.5663 334.379 91.1768 335.274 91.034 336.408H98.0849C97.9421 335.29 97.5526 334.403 96.9163 333.748C96.28 333.077 95.5009 332.742 94.5789 332.742Z" fill="white"/>
<path d="M155.037 36.727L151.4 30.1251H151.183H147.368V36.727H143V13H151.183C152.856 13 154.306 13.3557 155.531 14.0672C156.77 14.7622 157.719 15.7549 158.378 17.0455C159.05 18.3361 159.386 19.8583 159.386 21.6122C159.386 23.3826 159.043 24.9049 158.358 26.1789C157.686 27.4529 156.731 28.4292 155.492 29.1075L159.742 36.727H155.037ZM154.958 21.6122C154.958 20.2885 154.616 19.2709 153.93 18.5595C153.245 17.848 152.25 17.4922 150.946 17.4922H147.368V25.757H150.946C152.25 25.757 153.245 25.393 153.93 24.6649C154.616 23.9369 154.958 22.9193 154.958 21.6122ZM176.765 27.6929C176.765 27.759 176.739 28.2306 176.686 29.1075H165.697C165.894 30.2327 166.362 31.1262 167.1 31.788C167.838 32.4333 168.754 32.7559 169.847 32.7559C170.612 32.7559 171.284 32.6153 171.863 32.334C172.443 32.0527 172.983 31.606 173.484 30.9938L175.737 34.0465C174.367 36.0155 172.371 37 169.748 37C168.115 37 166.665 36.6029 165.4 35.8087C164.135 34.9979 163.16 33.8811 162.475 32.4581C161.803 31.0352 161.467 29.4219 161.467 27.6184C161.467 25.8314 161.803 24.2265 162.475 22.8035C163.147 21.364 164.069 20.2472 165.242 19.4529C166.428 18.6422 167.746 18.2368 169.195 18.2368C170.618 18.2368 171.903 18.6256 173.049 19.4033C174.209 20.1644 175.118 21.2647 175.777 22.7042C176.436 24.1272 176.765 25.7901 176.765 27.6929ZM169.235 22.2327C168.273 22.2327 167.469 22.5719 166.823 23.2503C166.177 23.9286 165.782 24.8552 165.637 26.03H172.792C172.647 24.8718 172.252 23.9535 171.606 23.2751C170.961 22.5801 170.17 22.2327 169.235 22.2327ZM184.441 37C183.242 37 182.062 36.818 180.903 36.454C179.756 36.0734 178.84 35.6019 178.155 35.0393L179.559 31.242C180.204 31.7549 180.988 32.1768 181.911 32.5078C182.833 32.8387 183.736 33.0041 184.619 33.0041C186.397 33.0041 187.287 32.4498 187.287 31.3413C187.287 30.8283 187.043 30.456 186.556 30.2244C186.068 29.9928 185.324 29.8025 184.322 29.6536C183.123 29.4219 182.135 29.1655 181.357 28.8842C180.593 28.5863 179.928 28.0651 179.361 27.3206C178.794 26.5595 178.511 25.4922 178.511 24.1189C178.511 22.9772 178.775 21.9597 179.302 21.0662C179.842 20.1727 180.619 19.4778 181.634 18.9814C182.649 18.485 183.848 18.2368 185.231 18.2368C186.259 18.2368 187.28 18.3775 188.295 18.6587C189.31 18.94 190.146 19.3289 190.805 19.8252L189.422 23.5729C188.143 22.6794 186.747 22.2327 185.231 22.2327C184.335 22.2327 183.657 22.3899 183.195 22.7042C182.747 23.0186 182.523 23.424 182.523 23.9204C182.523 24.4829 182.767 24.88 183.255 25.1117C183.742 25.3268 184.52 25.5419 185.587 25.757C186.773 26.0052 187.742 26.2699 188.493 26.5512C189.244 26.8325 189.896 27.3454 190.449 28.09C191.016 28.8345 191.299 29.8769 191.299 31.2172C191.299 32.3423 191.029 33.3433 190.489 34.2203C189.949 35.0972 189.158 35.7839 188.117 36.2802C187.089 36.7601 185.864 37 184.441 37ZM200.803 37C199.275 37 197.898 36.6029 196.672 35.8087C195.46 34.9979 194.511 33.8811 193.826 32.4581C193.154 31.0352 192.818 29.4219 192.818 27.6184C192.818 25.8149 193.154 24.2017 193.826 22.7787C194.511 21.3557 195.46 20.2472 196.672 19.4529C197.898 18.6422 199.275 18.2368 200.803 18.2368C202.332 18.2368 203.695 18.6422 204.895 19.4529C206.107 20.2472 207.049 21.3557 207.721 22.7787C208.406 24.2017 208.749 25.8149 208.749 27.6184C208.749 29.4219 208.406 31.0352 207.721 32.4581C207.049 33.8811 206.107 34.9979 204.895 35.8087C203.695 36.6029 202.332 37 200.803 37ZM200.803 32.6567C201.884 32.6567 202.766 32.2017 203.452 31.2916C204.15 30.3816 204.499 29.1572 204.499 27.6184C204.499 26.0796 204.15 24.8552 203.452 23.9452C202.766 23.0186 201.884 22.5553 200.803 22.5553C199.723 22.5553 198.827 23.0186 198.115 23.9452C197.417 24.8552 197.067 26.0796 197.067 27.6184C197.067 29.1572 197.417 30.3816 198.115 31.2916C198.827 32.2017 199.723 32.6567 200.803 32.6567ZM226.184 18.5098V36.727H222.191V34.5677C221.638 35.3454 220.972 35.9493 220.195 36.3795C219.417 36.7932 218.581 37 217.685 37C215.774 37 214.258 36.3133 213.138 34.94C212.032 33.5502 211.478 31.5067 211.478 28.8097V18.5098H215.688V28.0155C215.688 30.9607 216.67 32.4333 218.633 32.4333C219.635 32.4333 220.439 32.0196 221.045 31.1923C221.664 30.365 221.974 29.1406 221.974 27.5191V18.5098H226.184ZM234.125 20.9173C234.626 20.0238 235.304 19.3537 236.161 18.9069C237.017 18.4602 237.999 18.2368 239.106 18.2368V23.1013C238.645 23.0683 238.328 23.0517 238.157 23.0517C236.958 23.0517 236.016 23.4736 235.331 24.3175C234.645 25.1613 234.303 26.4271 234.303 28.1148V36.727H230.093V18.5098H234.125V20.9173ZM248.495 37C246.953 37 245.563 36.6029 244.324 35.8087C243.099 34.9979 242.137 33.8811 241.439 32.4581C240.753 31.0352 240.411 29.4219 240.411 27.6184C240.411 25.8149 240.753 24.2017 241.439 22.7787C242.137 21.3557 243.099 20.2472 244.324 19.4529C245.563 18.6422 246.953 18.2368 248.495 18.2368C250.024 18.2368 251.361 18.6422 252.507 19.4529C253.654 20.2472 254.484 21.3888 254.998 22.878L251.737 25.062C250.986 23.3909 249.898 22.5553 248.475 22.5553C247.382 22.5553 246.472 23.0103 245.748 23.9204C245.023 24.8304 244.66 26.0631 244.66 27.6184C244.66 29.1737 245.023 30.4064 245.748 31.3164C246.472 32.2099 247.382 32.6567 248.475 32.6567C249.912 32.6567 250.999 31.8211 251.737 30.1499L254.998 32.3837C254.484 33.8397 253.654 34.9731 252.507 35.7839C251.361 36.5946 250.024 37 248.495 37ZM271.466 27.6929C271.466 27.759 271.44 28.2306 271.387 29.1075H260.397C260.595 30.2327 261.063 31.1262 261.801 31.788C262.538 32.4333 263.454 32.7559 264.548 32.7559C265.312 32.7559 265.984 32.6153 266.564 32.334C267.144 32.0527 267.684 31.606 268.185 30.9938L270.438 34.0465C269.068 36.0155 267.071 37 264.449 37C262.815 37 261.366 36.6029 260.101 35.8087C258.836 34.9979 257.861 33.8811 257.175 32.4581C256.503 31.0352 256.167 29.4219 256.167 27.6184C256.167 25.8314 256.503 24.2265 257.175 22.8035C257.847 21.364 258.77 20.2472 259.943 19.4529C261.128 18.6422 262.446 18.2368 263.896 18.2368C265.319 18.2368 266.604 18.6256 267.75 19.4033C268.91 20.1644 269.819 21.2647 270.478 22.7042C271.136 24.1272 271.466 25.7901 271.466 27.6929ZM263.935 22.2327C262.973 22.2327 262.169 22.5719 261.524 23.2503C260.878 23.9286 260.483 24.8552 260.338 26.03H267.493C267.348 24.8718 266.953 23.9535 266.307 23.2751C265.661 22.5801 264.871 22.2327 263.935 22.2327ZM279.141 37C277.942 37 276.763 36.818 275.603 36.454C274.457 36.0734 273.541 35.6019 272.856 35.0393L274.259 31.242C274.905 31.7549 275.689 32.1768 276.611 32.5078C277.534 32.8387 278.436 33.0041 279.319 33.0041C281.098 33.0041 281.988 32.4498 281.988 31.3413C281.988 30.8283 281.744 30.456 281.256 30.2244C280.769 29.9928 280.024 29.8025 279.023 29.6536C277.824 29.4219 276.835 29.1655 276.058 28.8842C275.294 28.5863 274.628 28.0651 274.062 27.3206C273.495 26.5595 273.212 25.4922 273.212 24.1189C273.212 22.9772 273.475 21.9597 274.002 21.0662C274.542 20.1727 275.32 19.4778 276.335 18.9814C277.349 18.485 278.548 18.2368 279.932 18.2368C280.96 18.2368 281.981 18.3775 282.996 18.6587C284.01 18.94 284.847 19.3289 285.506 19.8252L284.122 23.5729C282.844 22.6794 281.447 22.2327 279.932 22.2327C279.036 22.2327 278.357 22.3899 277.896 22.7042C277.448 23.0186 277.224 23.424 277.224 23.9204C277.224 24.4829 277.468 24.88 277.955 25.1117C278.443 25.3268 279.22 25.5419 280.288 25.757C281.474 26.0052 282.442 26.2699 283.193 26.5512C283.944 26.8325 284.597 27.3454 285.15 28.09C285.717 28.8345 286 29.8769 286 31.2172C286 32.3423 285.73 33.3433 285.19 34.2203C284.649 35.0972 283.859 35.7839 282.818 36.2802C281.79 36.7601 280.564 37 279.141 37Z" fill="white"/>
<path d="M138.906 214.9H123L123.008 203H169.448L169.44 214.9H153.586L153.557 256H138.877L138.906 214.9ZM198.608 203C203.305 203 207.381 203.8 210.835 205.401C214.289 206.984 216.951 209.254 218.821 212.212C220.709 215.152 221.651 218.623 221.648 222.624C221.645 226.608 220.698 230.061 218.807 232.984C216.932 235.906 214.267 238.168 210.811 239.769C207.355 241.352 203.278 242.143 198.58 242.143H189.542L189.533 256H174.878L174.915 203H198.608ZM197.72 230.348C200.733 230.348 202.997 229.678 204.513 228.339C206.046 226.999 206.813 225.094 206.815 222.624C206.816 220.153 206.052 218.24 204.521 216.883C203.007 215.508 200.744 214.821 197.731 214.821H189.562L189.551 230.348H197.72ZM275.545 256L275.412 227.921L262.069 250.781H255.533L242.298 228.678L242.279 256H228.722L228.76 203H240.836L259.043 233.584L276.834 203H288.91L289 256H275.545Z" fill="white"/>
<path d="M165.174 179.118C166.433 179.541 167.416 180.25 168.123 181.244C168.845 182.238 169.206 183.453 169.206 184.887C169.206 186.941 168.453 188.523 166.948 189.632C165.443 190.724 163.254 191.271 160.382 191.272L149 191.275V167.899L159.76 167.896C162.448 167.895 164.506 168.44 165.934 169.532C167.378 170.624 168.1 172.107 168.1 173.982C168.1 175.123 167.839 176.142 167.317 177.039C166.81 177.919 166.095 178.612 165.174 179.118ZM154.069 171.981V177.483L159.137 177.481C160.397 177.481 161.349 177.252 161.994 176.796C162.64 176.323 162.962 175.63 162.962 174.717C162.962 173.804 162.64 173.119 161.994 172.663C161.349 172.207 160.397 171.979 159.137 171.979L154.069 171.981ZM160.013 187.189C161.349 187.188 162.355 186.96 163.031 186.503C163.722 186.03 164.068 185.304 164.068 184.326C164.068 182.386 162.716 181.417 160.013 181.418L154.069 181.419V187.19L160.013 187.189ZM189.302 182.363C189.302 182.428 189.271 182.893 189.21 183.757L176.4 183.76C176.63 184.869 177.175 185.749 178.035 186.401C178.895 187.036 179.963 187.354 181.238 187.353C182.129 187.353 182.912 187.214 183.588 186.937C184.264 186.66 184.893 186.219 185.477 185.616L188.104 188.623C186.506 190.563 184.179 191.534 181.123 191.535C179.218 191.535 177.528 191.145 176.054 190.363C174.579 189.564 173.443 188.464 172.644 187.063C171.861 185.661 171.469 184.072 171.469 182.295C171.469 180.534 171.861 178.953 172.644 177.551C173.427 176.132 174.503 175.031 175.87 174.249C177.252 173.449 178.788 173.05 180.478 173.049C182.136 173.049 183.634 173.431 184.97 174.197C186.322 174.946 187.382 176.03 188.15 177.448C188.918 178.85 189.302 180.488 189.302 182.363ZM180.524 176.986C179.402 176.986 178.465 177.321 177.713 177.989C176.96 178.658 176.499 179.571 176.33 180.728L184.671 180.726C184.502 179.585 184.041 178.68 183.288 178.012C182.536 177.328 181.614 176.986 180.524 176.986ZM192.558 173.315L197.465 173.313V191.261L192.558 191.263V173.315ZM195 170.795C194.109 170.795 193.379 170.519 192.811 169.964C192.243 169.41 191.959 168.718 191.959 167.886C191.959 167.071 192.243 166.386 192.811 165.832C193.379 165.278 194.109 165 195 165C195.906 165 196.643 165.268 197.212 165.806C197.78 166.328 198.064 166.988 198.064 167.787C198.064 168.667 197.78 169.392 197.212 169.963C196.643 170.518 195.906 170.795 195 170.795ZM212.323 173.04C214.412 173.039 216.101 173.707 217.391 175.043C218.682 176.38 219.327 178.36 219.327 180.985V191.255L214.419 191.256V181.769C214.419 180.35 214.127 179.291 213.544 178.59C212.96 177.889 212.108 177.539 210.986 177.539C209.758 177.54 208.775 177.948 208.037 178.763C207.3 179.578 206.931 180.785 206.931 182.382V191.258L202.024 191.26V173.312L206.724 173.31V175.413C207.369 174.647 208.176 174.06 209.143 173.652C210.111 173.244 211.171 173.04 212.323 173.04ZM241.408 173.3V188.241C241.408 191.534 240.602 193.979 238.989 195.577C237.376 197.191 235.019 197.999 231.916 198C230.272 198 228.713 197.789 227.239 197.366C225.78 196.942 224.566 196.331 223.599 195.533L225.557 191.791C226.263 192.41 227.162 192.899 228.253 193.257C229.343 193.632 230.434 193.819 231.524 193.819C233.229 193.818 234.481 193.41 235.28 192.595C236.094 191.78 236.501 190.549 236.501 188.902V188.144C235.226 189.644 233.444 190.395 231.156 190.396C229.604 190.396 228.183 190.038 226.893 189.321C225.603 188.588 224.582 187.569 223.829 186.265C223.076 184.945 222.7 183.429 222.7 181.717C222.7 180.006 223.076 178.49 223.829 177.169C224.582 175.848 225.603 174.829 226.893 174.111C228.183 173.394 229.604 173.035 231.156 173.034C233.613 173.034 235.479 173.889 236.754 175.6V173.302L241.408 173.3ZM232.123 186.116C233.429 186.116 234.496 185.708 235.326 184.893C236.155 184.077 236.57 183.017 236.57 181.713C236.57 180.393 236.155 179.325 235.326 178.51C234.496 177.696 233.429 177.288 232.123 177.289C230.833 177.289 229.766 177.697 228.921 178.512C228.076 179.328 227.654 180.396 227.654 181.716C227.654 183.02 228.076 184.08 228.921 184.894C229.766 185.709 230.833 186.116 232.123 186.116ZM269.719 186.227L259.49 186.23L257.531 191.244L252.324 191.245L262.139 167.866L267.162 167.864L277 191.238L271.655 191.24L269.719 186.227ZM268.107 182.12L264.605 173.196L261.126 182.122L268.107 182.12Z" fill="white"/>
</svg>
