<svg width="427" height="253" viewBox="0 0 427 253" fill="none" xmlns="http://www.w3.org/2000/svg">
<path d="M316.577 216.871C316.364 216.871 316.16 216.801 316.01 216.677C315.859 216.552 315.775 216.384 315.775 216.208V172.094C315.775 171.918 315.859 171.749 316.01 171.625C316.16 171.501 316.364 171.431 316.577 171.431C316.789 171.431 316.993 171.501 317.144 171.625C317.294 171.749 317.379 171.918 317.379 172.094V216.208C317.379 216.384 317.294 216.552 317.144 216.677C316.993 216.801 316.789 216.871 316.577 216.871Z" fill="#231F20"/>
<path d="M426.198 225.121H0.802029C0.590603 225.117 0.388977 225.046 0.239448 224.923C0.0899198 224.799 0.0041065 224.632 0 224.457C0 224.282 0.0844986 224.113 0.234908 223.988C0.385318 223.864 0.589317 223.794 0.802029 223.794H426.198C426.411 223.794 426.615 223.864 426.765 223.988C426.916 224.113 427 224.282 427 224.457C426.996 224.632 426.91 224.799 426.761 224.923C426.611 225.046 426.409 225.117 426.198 225.121V225.121Z" fill="#D1D3D4"/>
<path d="M363.415 12.6028H61.6439C55.3098 12.6028 50.1749 16.8486 50.1749 22.0861V193.302C50.1749 198.539 55.3098 202.785 61.6439 202.785H363.415C369.749 202.785 374.884 198.539 374.884 193.302V22.0861C374.884 16.8486 369.749 12.6028 363.415 12.6028Z" fill="white"/>
<path d="M363.415 203.448H61.6279C58.3762 203.445 55.2592 202.374 52.9614 200.472C50.6636 198.569 49.3729 195.991 49.3729 193.302V22.0861C49.3729 19.3974 50.6636 16.8186 52.9614 14.9161C55.2592 13.0137 58.3762 11.9432 61.6279 11.9396H363.415C366.668 11.9431 369.787 13.0133 372.087 14.9153C374.388 16.8174 375.682 19.3961 375.686 22.0861V193.302C375.682 195.992 374.388 198.571 372.087 200.473C369.787 202.375 366.668 203.445 363.415 203.448V203.448ZM61.6279 13.266C58.8016 13.2695 56.0926 14.2003 54.0956 15.854C52.0986 17.5077 50.977 19.7491 50.977 22.0861V193.302C50.977 195.639 52.0986 197.88 54.0956 199.534C56.0926 201.188 58.8016 202.119 61.6279 202.122H363.415C366.244 202.122 368.957 201.193 370.958 199.539C372.958 197.885 374.082 195.641 374.082 193.302V22.0861C374.082 19.7468 372.958 17.5034 370.958 15.8493C368.957 14.1952 366.244 13.266 363.415 13.266H61.6279Z" fill="#231F20"/>
<path d="M363.243 31.0565H62.53V194.752H363.243V31.0565Z" fill="#1561AD"/>
<path d="M260.836 230.32H164.207L175.131 202.785H249.928L260.836 230.32Z" fill="white"/>
<path d="M260.836 231.009H164.207C164.075 231.008 163.945 230.981 163.828 230.931C163.711 230.88 163.61 230.807 163.534 230.718C163.46 230.63 163.412 230.529 163.392 230.423C163.373 230.318 163.383 230.21 163.421 230.108L174.345 202.573C174.402 202.438 174.508 202.32 174.648 202.237C174.789 202.154 174.958 202.109 175.131 202.109H249.912C250.086 202.105 250.257 202.148 250.399 202.232C250.541 202.316 250.646 202.435 250.698 202.573L261.622 230.108C261.669 230.209 261.683 230.318 261.663 230.425C261.644 230.532 261.591 230.633 261.509 230.718C261.435 230.809 261.335 230.883 261.217 230.934C261.099 230.985 260.968 231.011 260.836 231.009ZM165.346 229.683H259.697L249.319 203.448H175.741L165.346 229.683Z" fill="#231F20"/>
<path d="M268.824 230.32H156.219C153.632 230.32 151.535 232.054 151.535 234.193V234.206C151.535 236.345 153.632 238.079 156.219 238.079H268.824C271.411 238.079 273.508 236.345 273.508 234.206V234.193C273.508 232.054 271.411 230.32 268.824 230.32Z" fill="white"/>
<path d="M268.824 238.755H156.235C155.487 238.789 154.738 238.696 154.034 238.482C153.33 238.268 152.687 237.938 152.143 237.511C151.598 237.085 151.165 236.571 150.869 236.002C150.573 235.433 150.42 234.819 150.42 234.199C150.42 233.579 150.573 232.966 150.869 232.397C151.165 231.827 151.598 231.314 152.143 230.887C152.687 230.461 153.33 230.131 154.034 229.917C154.738 229.703 155.487 229.61 156.235 229.643H268.824C269.572 229.61 270.321 229.703 271.025 229.917C271.729 230.131 272.372 230.461 272.916 230.887C273.461 231.314 273.894 231.827 274.19 232.397C274.486 232.966 274.639 233.579 274.639 234.199C274.639 234.819 274.486 235.433 274.19 236.002C273.894 236.571 273.461 237.085 272.916 237.511C272.372 237.938 271.729 238.268 271.025 238.482C270.321 238.696 269.572 238.789 268.824 238.755V238.755ZM156.235 231.009C155.708 230.981 155.179 231.043 154.681 231.19C154.184 231.338 153.728 231.568 153.342 231.867C152.957 232.166 152.649 232.528 152.439 232.929C152.229 233.33 152.12 233.762 152.12 234.199C152.12 234.636 152.229 235.069 152.439 235.47C152.649 235.871 152.957 236.232 153.342 236.531C153.728 236.83 154.184 237.06 154.681 237.208C155.179 237.356 155.708 237.417 156.235 237.389H268.824C269.351 237.417 269.88 237.356 270.378 237.208C270.876 237.06 271.331 236.83 271.717 236.531C272.102 236.232 272.41 235.871 272.62 235.47C272.83 235.069 272.939 234.636 272.939 234.199C272.939 233.762 272.83 233.33 272.62 232.929C272.41 232.528 272.102 232.166 271.717 231.867C271.331 231.568 270.876 231.338 270.378 231.19C269.88 231.043 269.351 230.981 268.824 231.009H156.235Z" fill="#231F20"/>
<path d="M167.111 223.025C168.715 222.335 252.334 209.762 252.334 209.762L249.591 202.851H174.794L167.111 223.025Z" fill="#231F20"/>
<path d="M167.095 223.701C166.905 223.703 166.722 223.647 166.581 223.542C166.459 223.456 166.371 223.342 166.328 223.215C166.285 223.087 166.29 222.952 166.341 222.826L174.04 202.586C174.089 202.452 174.188 202.334 174.324 202.251C174.46 202.167 174.625 202.122 174.794 202.122H249.591C249.76 202.124 249.924 202.17 250.059 202.253C250.194 202.337 250.295 202.453 250.345 202.586L253.088 209.496C253.135 209.582 253.159 209.675 253.159 209.768C253.159 209.862 253.135 209.955 253.088 210.04C252.964 210.201 252.768 210.316 252.543 210.358C229.605 213.82 169.645 222.959 167.528 223.622C167.397 223.684 167.245 223.712 167.095 223.701V223.701ZM175.388 203.448L168.298 222.097C178.676 220.187 236.695 211.393 251.276 209.178L248.998 203.448H175.388Z" fill="#231F20"/>
<path d="M157.807 84.9614C157.199 86.5648 156.212 88.0524 154.904 89.3383C153.64 90.5412 152.082 91.5086 150.332 92.1766C148.454 92.8505 146.429 93.1982 144.381 93.1982C142.334 93.1982 140.308 92.8505 138.43 92.1766C136.702 91.5105 135.17 90.5421 133.939 89.3383C132.667 88.0402 131.704 86.5552 131.1 84.9614C130.414 83.1232 130.079 81.2081 130.105 79.2847V57.7849H138.125V78.6083C138.12 79.5008 138.238 80.3908 138.478 81.261C138.693 82.0562 139.061 82.8175 139.569 83.5157C140.038 84.1731 140.707 84.7173 141.51 85.094C142.395 85.505 143.399 85.7069 144.413 85.6776C145.375 85.7029 146.328 85.5159 147.174 85.136C148.019 84.7561 148.728 84.1968 149.225 83.5157C149.74 82.8202 150.109 82.0579 150.316 81.261C150.537 80.3887 150.645 79.4994 150.637 78.6083V57.7849H158.657V79.2317C158.752 81.1671 158.465 83.1023 157.807 84.9614V84.9614Z" fill="white"/>
<path d="M186.648 92.2695L173.174 69.7219H173.03L173.222 92.2695H165.378V57.7849H174.602L188.028 80.3325H188.172L187.979 57.7849H195.855V92.2695H186.648Z" fill="white"/>
<path d="M234.016 75.0272C234.101 77.6884 233.556 80.3378 232.412 82.826C231.459 84.8616 229.994 86.7062 228.113 88.2375C226.389 89.6116 224.334 90.6692 222.082 91.3411C219.896 91.9962 217.589 92.3328 215.264 92.3358H202.769V57.7849H214.895C217.264 57.7899 219.619 58.0758 221.889 58.6338C224.167 59.193 226.269 60.1572 228.049 61.4589C229.97 62.9289 231.457 64.744 232.396 66.7642C233.59 69.4031 234.141 72.2114 234.016 75.0272ZM225.595 75.0272C225.654 73.3807 225.344 71.7393 224.68 70.1861C224.158 69.0192 223.312 67.9698 222.21 67.1223C221.205 66.371 220.011 65.8138 218.713 65.4909C217.401 65.1685 216.04 65.0032 214.671 65.0002H210.645V85.1338H214.478C215.897 85.1413 217.308 84.9714 218.665 84.6298C219.984 84.2943 221.195 83.7187 222.21 82.9454C223.31 82.0812 224.155 81.0193 224.68 79.8418C225.339 78.2967 225.649 76.6648 225.595 75.0272V75.0272Z" fill="white"/>
<path d="M239.357 92.2695V57.7849H261.814V64.788H247.185V71.3002H261.092V77.9319H247.185V85.0808H262.761V92.2695H239.357Z" fill="white"/>
<path d="M286.019 92.2695L278.753 78.6083H276.058V92.2695H268.038V57.7849H280.87C282.463 57.782 284.049 57.956 285.586 58.3022C287.092 58.6296 288.497 59.2173 289.709 60.0264C290.968 60.8932 291.962 61.9927 292.612 63.2361C293.393 64.8079 293.765 66.4981 293.703 68.1966C293.783 70.2652 293.143 72.3093 291.858 74.0855C290.65 75.6516 288.852 76.845 286.741 77.4809L295.483 92.2695H286.019ZM285.683 68.3956C285.719 67.7128 285.548 67.0333 285.185 66.4193C284.885 65.9461 284.443 65.5442 283.902 65.2521C283.362 64.9753 282.763 64.7862 282.138 64.6951C281.518 64.6018 280.89 64.553 280.261 64.5492H275.946V72.5735H279.796C280.48 72.5739 281.163 72.5162 281.833 72.4011C282.507 72.2966 283.153 72.0945 283.742 71.8042C284.341 71.472 284.822 71.0143 285.137 70.4779C285.524 69.8317 285.712 69.1163 285.683 68.3956V68.3956Z" fill="white"/>
<path d="M140.275 116.541C139.26 116.989 138.122 117.212 136.971 117.191C135.898 117.205 134.834 117.019 133.86 116.647C132.885 116.275 132.024 115.727 131.341 115.042C130.624 114.305 130.081 113.464 129.737 112.562C129.326 111.54 129.125 110.469 129.143 109.392C129.12 108.301 129.326 107.215 129.753 106.182C130.115 105.281 130.687 104.448 131.437 103.729C132.137 103.067 133.002 102.538 133.971 102.177C134.955 101.813 136.022 101.627 137.099 101.633C138.157 101.637 139.201 101.827 140.163 102.19C141.139 102.536 141.982 103.096 142.601 103.808L140.195 106.222C139.884 105.785 139.427 105.43 138.88 105.201C138.384 104.989 137.834 104.875 137.276 104.869C136.677 104.859 136.086 104.978 135.559 105.214C135.039 105.445 134.585 105.766 134.228 106.156C133.839 106.587 133.546 107.072 133.362 107.588C132.934 108.774 132.934 110.037 133.362 111.222C133.534 111.74 133.822 112.226 134.212 112.655C134.559 113.043 135.009 113.361 135.527 113.583C136.047 113.808 136.626 113.922 137.212 113.915C137.862 113.929 138.503 113.786 139.056 113.504C139.579 113.231 140.013 112.858 140.324 112.416L142.794 114.75C142.13 115.498 141.269 116.11 140.275 116.541V116.541Z" fill="white"/>
<path d="M159.235 109.352C159.254 110.438 159.054 111.518 158.642 112.549C158.298 113.455 157.754 114.3 157.038 115.042C156.333 115.73 155.452 116.279 154.459 116.65C153.466 117.022 152.385 117.207 151.295 117.191C150.189 117.203 149.094 117.012 148.087 116.634C147.116 116.257 146.252 115.715 145.553 115.042C144.836 114.3 144.292 113.455 143.949 112.549C143.537 111.518 143.336 110.438 143.355 109.352C143.334 108.267 143.534 107.186 143.949 106.156C144.293 105.266 144.837 104.438 145.553 103.715C146.255 103.059 147.119 102.534 148.087 102.177C149.098 101.809 150.191 101.624 151.295 101.633C152.399 101.627 153.492 101.813 154.503 102.177C155.472 102.534 156.336 103.059 157.038 103.715C157.754 104.438 158.298 105.266 158.642 106.156C159.056 107.186 159.257 108.267 159.235 109.352ZM155.45 109.352C155.453 108.746 155.344 108.142 155.129 107.562C154.957 107.044 154.669 106.558 154.279 106.129C153.922 105.74 153.468 105.419 152.947 105.188C152.418 104.957 151.829 104.839 151.231 104.843C150.644 104.839 150.064 104.958 149.547 105.188C149.026 105.419 148.572 105.74 148.216 106.129C147.82 106.557 147.526 107.043 147.349 107.562C147.147 108.144 147.045 108.747 147.045 109.352C147.039 109.977 147.148 110.598 147.365 111.196C147.55 111.717 147.838 112.21 148.216 112.655C148.572 113.044 149.026 113.366 149.547 113.597C150.069 113.823 150.65 113.942 151.239 113.942C151.829 113.942 152.409 113.823 152.931 113.597C153.452 113.366 153.906 113.044 154.263 112.655C154.658 112.217 154.952 111.722 155.129 111.196C155.347 110.598 155.455 109.977 155.45 109.352Z" fill="white"/>
<path d="M170.913 116.793L165.01 107.151L165.09 116.806H161.641V102.031H165.7L171.587 111.673L171.49 102.031H174.939V116.793H170.913Z" fill="white"/>
<path d="M185.734 105.824C185.43 105.444 185.024 105.126 184.547 104.896C184.115 104.682 183.623 104.563 183.12 104.551C182.882 104.554 182.646 104.576 182.414 104.617C182.176 104.655 181.951 104.736 181.756 104.856C181.558 104.985 181.39 105.142 181.259 105.32C181.121 105.541 181.054 105.788 181.067 106.037C181.054 106.252 181.109 106.467 181.227 106.66C181.33 106.834 181.485 106.985 181.676 107.098C181.901 107.234 182.143 107.349 182.398 107.442L183.328 107.774C183.826 107.933 184.339 108.119 184.932 108.318C185.473 108.521 185.971 108.794 186.408 109.127C186.861 109.478 187.231 109.897 187.499 110.36C187.808 110.945 187.956 111.579 187.932 112.217C187.958 112.97 187.8 113.718 187.467 114.419C187.191 114.998 186.764 115.519 186.216 115.944C185.696 116.341 185.085 116.648 184.419 116.846C183.742 117.036 183.033 117.135 182.318 117.138C181.265 117.137 180.225 116.947 179.27 116.581C178.314 116.227 177.477 115.685 176.832 115.002L179.142 112.628C179.511 113.083 179.999 113.464 180.569 113.742C181.087 114.03 181.694 114.187 182.318 114.193C182.577 114.195 182.836 114.168 183.088 114.114C183.33 114.065 183.555 113.969 183.745 113.835C183.937 113.701 184.09 113.533 184.194 113.345C184.303 113.103 184.357 112.847 184.355 112.589C184.369 112.338 184.296 112.09 184.146 111.872C183.989 111.668 183.788 111.488 183.553 111.342C183.258 111.167 182.941 111.02 182.606 110.904L181.307 110.48C180.834 110.323 180.373 110.141 179.928 109.936C179.479 109.724 179.073 109.455 178.725 109.14C178.355 108.789 178.067 108.384 177.875 107.946C177.393 106.7 177.456 105.353 178.051 104.14C178.351 103.59 178.794 103.101 179.348 102.709C179.903 102.317 180.555 102.031 181.259 101.872C181.924 101.703 182.616 101.618 183.312 101.62C184.185 101.626 185.048 101.779 185.847 102.071C186.713 102.371 187.49 102.824 188.124 103.397L185.734 105.824Z" fill="white"/>
<path d="M196.225 105.068V116.793H192.68V105.068H188.542V102.031H200.379V105.068H196.225Z" fill="white"/>
<path d="M209.795 116.793L206.587 110.931H205.384V116.793H201.919V102.031H207.517C208.21 102.027 208.9 102.098 209.571 102.243C210.231 102.384 210.848 102.637 211.383 102.986C211.924 103.341 212.357 103.795 212.65 104.312C212.996 104.987 213.16 105.715 213.132 106.448C213.164 107.334 212.885 108.209 212.33 108.968C211.79 109.641 211.003 110.153 210.084 110.427L213.918 116.74L209.795 116.793ZM209.651 106.554C209.661 106.26 209.584 105.968 209.426 105.705C209.294 105.504 209.1 105.335 208.865 105.214C208.631 105.092 208.369 105.011 208.095 104.975C207.826 104.928 207.552 104.906 207.277 104.909H205.368V108.344H207.068C207.364 108.348 207.66 108.326 207.951 108.278C208.246 108.234 208.529 108.144 208.785 108.013C209.052 107.885 209.269 107.696 209.41 107.469C209.637 107.199 209.77 106.882 209.795 106.554H209.651Z" fill="white"/>
<path d="M227.729 113.663C227.465 114.351 227.033 114.987 226.461 115.533C225.909 116.056 225.225 116.473 224.456 116.753C223.632 117.042 222.745 117.191 221.85 117.191C220.954 117.191 220.068 117.042 219.243 116.753C218.484 116.473 217.81 116.056 217.27 115.533C216.715 114.982 216.296 114.347 216.035 113.663C215.735 112.874 215.589 112.05 215.602 111.222V102.031H219.115V110.931C219.117 111.319 219.171 111.706 219.275 112.085C219.37 112.427 219.532 112.754 219.756 113.053C219.96 113.338 220.254 113.572 220.607 113.729C220.994 113.907 221.432 113.994 221.874 113.981C222.321 113.994 222.765 113.907 223.157 113.729C223.51 113.572 223.804 113.338 224.007 113.053C224.238 112.757 224.401 112.429 224.488 112.085C224.587 111.705 224.636 111.319 224.633 110.931V102.031H228.178V111.222C228.194 112.051 228.042 112.876 227.729 113.663Z" fill="white"/>
<path d="M241.556 116.541C240.54 116.99 239.402 117.214 238.251 117.191C237.145 117.209 236.048 117.018 235.043 116.634C234.082 116.256 233.229 115.714 232.541 115.042C231.824 114.305 231.28 113.464 230.937 112.562C230.526 111.54 230.325 110.469 230.343 109.392C230.328 108.302 230.534 107.217 230.953 106.182C231.328 105.286 231.899 104.454 232.637 103.729C233.337 103.067 234.202 102.538 235.171 102.177C236.156 101.814 237.222 101.629 238.299 101.633C239.357 101.635 240.402 101.825 241.363 102.19C242.339 102.536 243.182 103.096 243.801 103.808L241.395 106.222C241.088 105.787 240.638 105.432 240.096 105.201C239.598 104.992 239.05 104.879 238.492 104.869C237.893 104.86 237.302 104.979 236.775 105.214C236.255 105.445 235.801 105.766 235.444 106.156C235.061 106.59 234.768 107.074 234.578 107.588C234.15 108.774 234.15 110.037 234.578 111.222C234.763 111.736 235.05 112.22 235.428 112.655C235.781 113.044 236.236 113.362 236.759 113.583C237.253 113.801 237.804 113.915 238.363 113.915C239.014 113.929 239.655 113.787 240.208 113.504C240.73 113.231 241.165 112.858 241.475 112.416L243.946 114.75C243.318 115.486 242.502 116.097 241.556 116.541Z" fill="white"/>
<path d="M251.629 105.068V116.793H248.084V105.068H243.946V102.031H255.784V105.068H251.629Z" fill="white"/>
<path d="M257.404 116.793V102.031H260.965V116.793H257.404Z" fill="white"/>
<path d="M279.299 109.352C279.313 110.438 279.107 111.519 278.69 112.549C278.346 113.455 277.802 114.3 277.085 115.042C276.389 115.718 275.525 116.261 274.551 116.634C273.543 117.009 272.448 117.199 271.343 117.191C270.256 117.205 269.178 117.019 268.188 116.648C267.198 116.276 266.32 115.728 265.616 115.042C264.9 114.3 264.356 113.455 264.012 112.549C263.6 111.518 263.4 110.438 263.419 109.352C263.397 108.267 263.598 107.186 264.012 106.156C264.356 105.266 264.901 104.438 265.616 103.715C266.318 103.059 267.183 102.534 268.151 102.177C269.161 101.809 270.255 101.624 271.359 101.633C272.463 101.627 273.555 101.812 274.567 102.177C275.538 102.531 276.403 103.056 277.102 103.715C277.817 104.438 278.362 105.266 278.706 106.156C279.12 107.186 279.321 108.267 279.299 109.352V109.352ZM275.497 109.352C275.505 108.746 275.403 108.143 275.193 107.562C275.009 107.046 274.716 106.561 274.326 106.129C273.974 105.737 273.519 105.415 272.995 105.188C272.471 104.959 271.887 104.841 271.295 104.843C270.702 104.837 270.117 104.956 269.594 105.188C269.074 105.419 268.62 105.74 268.263 106.129C267.874 106.561 267.581 107.046 267.397 107.562C267.195 108.144 267.092 108.747 267.092 109.352C267.087 109.977 267.195 110.598 267.413 111.196C267.598 111.717 267.885 112.21 268.263 112.655C268.62 113.044 269.074 113.366 269.594 113.597C270.117 113.828 270.702 113.947 271.295 113.941C271.887 113.944 272.471 113.825 272.995 113.597C273.508 113.362 273.956 113.041 274.31 112.655C274.711 112.218 275.01 111.723 275.193 111.196C275.427 110.6 275.551 109.979 275.562 109.352H275.497Z" fill="white"/>
<path d="M290.961 116.793L285.058 107.151L285.138 116.806H281.705V102.031H285.747L291.634 111.673L291.538 102.031H294.987V116.793H290.961Z" fill="white"/>
<path d="M353.149 113.523C353.024 113.525 352.901 113.502 352.789 113.456C352.677 113.41 352.58 113.342 352.508 113.258C352.187 112.913 344.952 104.716 344.952 84.2113V11.4887C344.957 11.3139 345.042 11.1472 345.192 11.0235C345.341 10.8999 345.543 10.8289 345.755 10.8255C345.967 10.8255 346.171 10.8954 346.322 11.0198C346.472 11.1441 346.557 11.3128 346.557 11.4887V84.2113C346.557 104.279 353.711 112.383 353.791 112.462C353.914 112.604 353.967 112.78 353.937 112.953C353.907 113.126 353.797 113.283 353.63 113.391C353.492 113.478 353.323 113.524 353.149 113.523V113.523Z" fill="#231F20"/>
<path d="M43.9833 153.234H28.5362V252.35H43.9833V153.234Z" fill="white"/>
<path d="M43.9993 253H28.5362C28.3235 253 28.1195 252.93 27.9691 252.806C27.8187 252.681 27.7342 252.513 27.7342 252.337V153.233C27.7342 153.058 27.8187 152.889 27.9691 152.765C28.1195 152.64 28.3235 152.57 28.5362 152.57H43.9993C44.212 152.57 44.416 152.64 44.5664 152.765C44.7169 152.889 44.8014 153.058 44.8014 153.233V252.337C44.8014 252.424 44.7806 252.51 44.7403 252.591C44.7 252.671 44.6409 252.744 44.5664 252.806C44.492 252.867 44.4035 252.916 44.3062 252.95C44.2089 252.983 44.1046 253 43.9993 253ZM29.3382 251.674H43.1973V153.897H29.3382V251.674Z" fill="#231F20"/>
<path d="M138.639 153.234H123.192V252.35H138.639V153.234Z" fill="white"/>
<path d="M138.655 253H123.192C122.979 253 122.775 252.93 122.624 252.806C122.474 252.681 122.39 252.513 122.39 252.337V153.233C122.39 153.058 122.474 152.889 122.624 152.765C122.775 152.64 122.979 152.57 123.192 152.57H138.655C138.867 152.57 139.071 152.64 139.222 152.765C139.372 152.889 139.457 153.058 139.457 153.233V252.337C139.457 252.513 139.372 252.681 139.222 252.806C139.071 252.93 138.867 253 138.655 253ZM123.994 251.674H137.853V153.897H123.994V251.674Z" fill="#231F20"/>
<path d="M150.605 160.661H13.4901V194.695H150.605V160.661Z" fill="#E5E5E5"/>
<path d="M150.605 160.661V194.695H13.4901V160.661H150.605V160.661ZM150.605 159.335H13.4901C13.0647 159.335 12.6567 159.474 12.3559 159.723C12.055 159.972 11.886 160.309 11.886 160.661V194.695C11.886 195.046 12.055 195.384 12.3559 195.632C12.6567 195.881 13.0647 196.021 13.4901 196.021H150.605C151.03 196.021 151.438 195.881 151.739 195.632C152.04 195.384 152.209 195.046 152.209 194.695V160.661C152.209 160.309 152.04 159.972 151.739 159.723C151.438 159.474 151.03 159.335 150.605 159.335Z" fill="#231F20"/>
<path d="M63.0234 194.695H41.9942L16.0085 160.674H37.0377L63.0234 194.695Z" fill="#231F20"/>
<path d="M105.547 194.695H84.5178L58.532 160.674H79.5612L105.547 194.695Z" fill="#231F20"/>
<path d="M148.07 194.695H127.041L101.056 160.674H122.085L148.07 194.695Z" fill="#231F20"/>
<path d="M148.087 208.236H13.4901V219.232H148.087V208.236Z" fill="white"/>
<path d="M148.071 219.895H13.4901C13.2774 219.895 13.0734 219.825 12.923 219.701C12.7726 219.576 12.6881 219.408 12.6881 219.232V208.236C12.6881 208.06 12.7726 207.892 12.923 207.767C13.0734 207.643 13.2774 207.573 13.4901 207.573H148.071C148.283 207.573 148.487 207.643 148.638 207.767C148.788 207.892 148.873 208.06 148.873 208.236V219.232C148.873 219.408 148.788 219.576 148.638 219.701C148.487 219.825 148.283 219.895 148.071 219.895ZM14.2922 218.568H147.268V208.9H14.2922V218.568Z" fill="#231F20"/>
<path d="M412.772 241.262H365.677L367.89 235.068L368.307 233.888L370.89 226.699L372.157 223.144L374.884 215.518L375.446 213.966L378.445 205.584L378.734 204.775L381.461 197.148L383.001 192.851L385.31 186.405L387.941 179.031H390.476L393.106 186.405L394.357 189.853L396.956 197.148L398.127 200.385L399.699 204.775L400.613 207.308L403.549 215.518L404.383 217.852L406.292 223.144L406.869 224.776L410.125 233.888L410.623 235.294L412.772 241.262Z" fill="white"/>
<path d="M390.476 179.031L393.106 186.405L394.357 189.853L396.956 197.148L398.127 200.385L399.731 204.775L400.645 207.321L403.581 215.518L404.415 217.852L406.308 223.158L406.885 224.789L410.093 233.901L410.59 235.307L412.724 241.275H365.677L367.89 235.081L368.307 233.901L370.89 226.712L372.157 223.158L374.884 215.531L375.446 213.979L378.445 205.597L378.718 204.775L381.445 197.148L383.049 192.851L385.359 186.405L387.989 179.031H390.524H390.476ZM390.524 177.704H387.989C387.645 177.707 387.311 177.802 387.036 177.974C386.762 178.145 386.562 178.386 386.465 178.659L383.819 186.02L381.509 192.48L379.985 196.777L377.242 204.39L376.953 205.199L373.906 213.581L373.344 215.147L370.617 222.773L369.35 226.314L366.768 233.516L366.351 234.697L364.137 240.891C364.067 241.088 364.054 241.297 364.099 241.499C364.143 241.702 364.244 241.893 364.394 242.058C364.543 242.223 364.737 242.356 364.959 242.448C365.182 242.54 365.428 242.588 365.677 242.588H412.756C413.01 242.597 413.263 242.555 413.494 242.467C413.725 242.378 413.928 242.245 414.084 242.08C414.241 241.914 414.348 241.719 414.396 241.513C414.444 241.306 414.431 241.093 414.36 240.891L412.227 234.922L411.713 233.516L408.505 224.391L407.928 222.773L406.019 217.468L405.185 215.147L402.265 206.937L401.351 204.39L399.747 200.013L398.576 196.764L395.977 189.482L394.726 186.02L392.096 178.659C391.996 178.375 391.783 178.126 391.493 177.953C391.202 177.78 390.85 177.693 390.492 177.704H390.524Z" fill="#231F20"/>
<path d="M417.616 241.262H360.833C359.876 241.262 359.1 241.903 359.1 242.694V245.347C359.1 246.138 359.876 246.78 360.833 246.78H417.616C418.573 246.78 419.349 246.138 419.349 245.347V242.694C419.349 241.903 418.573 241.262 417.616 241.262Z" fill="white"/>
<path d="M417.616 247.443H360.833C360.16 247.443 359.516 247.222 359.04 246.829C358.565 246.436 358.298 245.903 358.298 245.347V242.694C358.298 242.419 358.364 242.147 358.491 241.892C358.618 241.638 358.805 241.407 359.04 241.213C359.276 241.018 359.555 240.864 359.863 240.758C360.17 240.653 360.5 240.599 360.833 240.599H417.616C417.949 240.599 418.279 240.653 418.586 240.758C418.894 240.864 419.173 241.018 419.408 241.213C419.644 241.407 419.83 241.638 419.958 241.892C420.085 242.147 420.151 242.419 420.151 242.694V245.347C420.151 245.903 419.884 246.436 419.408 246.829C418.933 247.222 418.288 247.443 417.616 247.443ZM360.833 241.912C360.586 241.912 360.349 241.993 360.175 242.137C360 242.281 359.902 242.477 359.902 242.681V245.334C359.902 245.538 360 245.734 360.175 245.878C360.349 246.022 360.586 246.103 360.833 246.103H417.616C417.863 246.103 418.1 246.022 418.274 245.878C418.449 245.734 418.547 245.538 418.547 245.334V242.681C418.547 242.477 418.449 242.281 418.274 242.137C418.1 241.993 417.863 241.912 417.616 241.912H389.224H360.833Z" fill="#231F20"/>
<path d="M410.125 233.888H368.308L370.89 226.699L372.157 223.144H406.292L406.869 224.776L410.125 233.888Z" fill="#D1D3D4"/>
<path d="M403.549 215.518H374.884L375.446 213.966L378.445 205.584L378.734 204.775H399.699L400.613 207.308L403.549 215.518Z" fill="#D1D3D4"/>
<path d="M396.956 197.148H381.461L383.001 192.851L385.311 186.405H393.106L394.357 189.853L396.956 197.148Z" fill="#D1D3D4"/>
<path d="M326.939 12.7752L383.706 68.8524C383.88 69.0151 384.114 69.1263 384.371 69.169C384.629 69.2116 384.896 69.1835 385.133 69.0888C385.369 68.9941 385.561 68.8381 385.68 68.6445C385.799 68.451 385.838 68.2305 385.792 68.0168C384.505 63.2282 382.612 58.5648 380.146 54.1036L334.093 9.4196L328.254 10.0165C327.889 10.0525 327.543 10.1696 327.252 10.3553C326.96 10.541 326.736 10.7884 326.601 11.0712C326.466 11.354 326.426 11.6618 326.486 11.9618C326.545 12.2618 326.702 12.5429 326.939 12.7752V12.7752Z" fill="white"/>
<path d="M384.605 69.8737C384.316 69.8716 384.031 69.817 383.771 69.7139C383.51 69.6107 383.28 69.4616 383.097 69.2769L326.313 13.1997C325.982 12.8752 325.764 12.4826 325.681 12.0635C325.598 11.6445 325.654 11.2148 325.844 10.8201C326.033 10.4254 326.348 10.0806 326.756 9.82229C327.163 9.564 327.648 9.40192 328.158 9.35332L333.997 8.75647C334.129 8.7447 334.263 8.76037 334.386 8.80205C334.509 8.84372 334.618 8.91011 334.703 8.99521L380.755 53.6792C380.796 53.7212 380.834 53.7655 380.867 53.8119C383.351 58.3219 385.26 63.0337 386.562 67.871C386.624 68.1123 386.62 68.362 386.55 68.6019C386.481 68.8418 386.348 69.0659 386.16 69.2577C385.973 69.4496 385.736 69.6045 385.467 69.7111C385.198 69.8176 384.903 69.8732 384.605 69.8737V69.8737ZM327.548 12.3508L384.332 68.428C384.386 68.4845 384.462 68.5234 384.547 68.538C384.632 68.5525 384.721 68.5418 384.797 68.5076C384.876 68.4763 384.94 68.4238 384.977 68.3588C385.015 68.2937 385.025 68.2199 385.006 68.1495C383.724 63.4426 381.864 58.8563 379.456 54.4618L333.804 10.1226L328.399 10.6664C328.176 10.6921 327.966 10.7656 327.788 10.8797C327.611 10.9937 327.473 11.1443 327.388 11.3163C327.31 11.4887 327.288 11.6751 327.324 11.8567C327.361 12.0383 327.455 12.2087 327.597 12.3508H327.548Z" fill="#231F20"/>
<path d="M334.093 9.41959L380.145 54.1036C380.145 54.1036 397.646 36.6757 394.085 22.4574C390.524 8.23916 375.012 -1.13799 357.865 1.01067C340.718 3.15932 334.093 9.41959 334.093 9.41959Z" fill="white"/>
<path d="M380.146 54.7668C380.029 54.7669 379.914 54.7455 379.808 54.7042C379.703 54.6629 379.61 54.6028 379.536 54.5281L333.483 9.80424C333.359 9.68412 333.291 9.53125 333.291 9.37318C333.291 9.21511 333.359 9.06224 333.483 8.94212C333.756 8.67686 340.429 2.46964 357.705 0.307721C374.98 -1.8542 391.181 7.57601 394.871 22.285C398.48 36.6492 381.477 53.7588 380.755 54.4883C380.681 54.563 380.588 54.6232 380.483 54.6645C380.377 54.7057 380.262 54.7271 380.146 54.727V54.7668ZM335.232 9.4594L380.146 53.0558C383.161 49.8461 396.411 34.8453 393.331 22.5503C389.818 8.54423 374.611 -0.461548 358.042 1.62079C343.814 3.4246 337.012 8.05349 335.184 9.4594H335.232Z" fill="#231F20"/>
<path d="M382.102 42.7105C381.991 42.7287 381.877 42.7287 381.766 42.7105C381.67 42.6748 381.584 42.6237 381.512 42.5601C381.441 42.4964 381.385 42.4216 381.35 42.34C381.314 42.2584 381.298 42.1717 381.303 42.085C381.309 41.9982 381.335 41.9133 381.381 41.8351C386.005 33.597 387.288 24.3441 385.038 15.4544C384.983 15.2785 385.014 15.0917 385.125 14.935C385.237 14.7783 385.419 14.6645 385.631 14.6188C385.844 14.5731 386.07 14.5991 386.26 14.6911C386.449 14.7832 386.587 14.9337 386.642 15.1096C389.055 24.2976 387.735 33.887 382.888 42.3922C382.806 42.5002 382.689 42.5872 382.55 42.6434C382.411 42.6996 382.256 42.7228 382.102 42.7105V42.7105Z" fill="#D1D3D4"/>
<path d="M377.162 51.2122L384.3 46.1191L389.224 50.6552L382.038 56.942L377.162 51.2122Z" fill="white"/>
<path d="M382.038 57.5521C381.921 57.5437 381.807 57.5145 381.705 57.4665C381.602 57.4184 381.514 57.3526 381.445 57.2736L376.633 51.5438C376.519 51.4097 376.47 51.2451 376.497 51.0827C376.524 50.9204 376.624 50.7725 376.777 50.6685L383.771 45.6151C383.922 45.4967 384.123 45.4307 384.332 45.4307C384.541 45.4307 384.742 45.4967 384.893 45.6151L389.818 50.1379C389.952 50.2619 390.026 50.4225 390.026 50.5889C390.026 50.7553 389.952 50.9158 389.818 51.0398L382.632 57.3266C382.559 57.3979 382.468 57.455 382.365 57.494C382.263 57.5329 382.151 57.5528 382.038 57.5521ZM378.237 51.2786L382.118 55.8411L388.134 50.5358L384.236 46.9415L378.237 51.2786Z" fill="#231F20"/>
<path d="M376.408 39.0498C376.297 39.068 376.182 39.068 376.071 39.0498C375.878 38.9774 375.727 38.8447 375.652 38.6806C375.577 38.5165 375.583 38.3345 375.67 38.1744C378.106 33.9035 379.448 29.2622 379.611 24.542C379.774 19.8218 378.754 15.1247 376.617 10.7459C376.527 10.5871 376.515 10.4058 376.584 10.24C376.653 10.0742 376.797 9.93703 376.985 9.85728C377.08 9.8188 377.183 9.79617 377.289 9.79068C377.394 9.78519 377.5 9.79696 377.599 9.8253C377.699 9.85364 377.791 9.898 377.87 9.95584C377.95 10.0137 378.014 10.0839 378.06 10.1623C380.281 14.7096 381.343 19.5867 381.18 24.4887C381.017 29.3907 379.633 34.2123 377.114 38.6519C377.052 38.7655 376.953 38.8628 376.829 38.9331C376.704 39.0033 376.559 39.0437 376.408 39.0498Z" fill="#D1D3D4"/>
<path d="M50.1749 101.692C49.9622 101.712 49.7489 101.66 49.582 101.55C49.415 101.439 49.3081 101.278 49.2847 101.102C49.2613 100.926 49.3234 100.75 49.4572 100.612C49.5911 100.474 49.7858 100.385 49.9985 100.366C50.993 100.194 150.445 81.4658 179.927 12.3773C179.996 12.2127 180.141 12.0773 180.33 12.0004C180.519 11.9234 180.738 11.9111 180.938 11.9662C181.138 12.0263 181.302 12.1486 181.395 12.3071C181.488 12.4656 181.502 12.6478 181.435 12.815C151.728 82.6197 51.4261 101.48 50.4155 101.679L50.1749 101.692Z" fill="#231F20"/>
<path d="M213.308 42.7502C212.238 42.7502 211.195 42.7502 210.18 42.7502C149.947 40.9862 101.104 13.4649 100.606 13.1864C100.519 13.1384 100.444 13.0764 100.386 13.004C100.328 12.9317 100.288 12.8505 100.269 12.7651C100.249 12.6798 100.251 12.5922 100.273 12.5074C100.295 12.4225 100.338 12.3422 100.398 12.2712C100.458 12.1984 100.534 12.1362 100.623 12.088C100.712 12.0399 100.811 12.0069 100.916 11.9908C101.02 11.9748 101.127 11.976 101.231 11.9946C101.335 12.0131 101.434 12.0485 101.521 12.0988C102.002 12.3773 150.477 39.6731 210.228 41.4239C256.97 42.7502 287.88 12.5232 288.185 12.2447C288.325 12.1111 288.522 12.028 288.735 12.0131C288.948 11.9983 289.159 12.0528 289.324 12.1651C289.405 12.2201 289.472 12.288 289.521 12.3649C289.57 12.4417 289.6 12.5259 289.609 12.6125C289.618 12.699 289.606 12.7862 289.573 12.8688C289.541 12.9514 289.489 13.0278 289.42 13.0935C289.115 13.3323 259.103 42.7502 213.308 42.7502Z" fill="#231F20"/>
<path d="M274.807 54.8994C274.331 54.9192 273.855 54.9192 273.379 54.8994C264.108 54.1036 257.339 46.4905 253.954 32.8956C252.37 26.237 251.559 19.4685 251.532 12.6824C251.532 12.5065 251.617 12.3378 251.767 12.2135C251.917 12.0891 252.121 12.0192 252.334 12.0192C252.548 12.0227 252.752 12.0955 252.902 12.222C253.052 12.3484 253.136 12.5185 253.136 12.6956C253.136 13.0803 252.783 51.7826 273.54 53.5864C275.134 53.7305 276.747 53.5869 278.267 53.1656C279.787 52.7443 281.179 52.0552 282.346 51.1459C294.344 42.2595 294.681 12.9742 294.681 12.6824C294.681 12.5065 294.766 12.3378 294.916 12.2135C295.067 12.0891 295.271 12.0192 295.483 12.0192C295.59 12.0192 295.696 12.0368 295.794 12.0709C295.892 12.1051 295.981 12.1551 296.056 12.2181C296.131 12.2811 296.19 12.3558 296.229 12.4378C296.268 12.5198 296.287 12.6074 296.285 12.6956C296.285 13.9159 295.932 42.8564 283.453 52.1274C281.1 53.9237 278.01 54.9145 274.807 54.8994V54.8994Z" fill="#231F20"/>
<path d="M286.499 147.902H168.615C165.07 147.902 162.195 150.599 162.195 153.926V177.936C162.195 181.263 165.07 183.96 168.615 183.96H286.499C290.045 183.96 292.919 181.263 292.919 177.936V153.926C292.919 150.599 290.045 147.902 286.499 147.902Z" fill="white"/>
<path d="M286.495 147.902C288.198 147.902 289.83 148.537 291.034 149.666C292.238 150.796 292.915 152.329 292.915 153.926V177.936C292.915 179.533 292.238 181.066 291.034 182.196C289.83 183.325 288.198 183.96 286.495 183.96H168.615C166.912 183.96 165.28 183.325 164.076 182.196C162.872 181.066 162.195 179.533 162.195 177.936V153.926C162.195 152.329 162.872 150.796 164.076 149.666C165.28 148.537 166.912 147.902 168.615 147.902H286.495ZM286.495 147.5H168.615C166.799 147.5 165.057 148.177 163.773 149.382C162.489 150.588 161.767 152.222 161.767 153.926V177.936C161.767 179.64 162.489 181.274 163.773 182.48C165.057 183.685 166.799 184.362 168.615 184.362H286.495C288.311 184.362 290.053 183.685 291.337 182.48C292.621 181.274 293.342 179.64 293.342 177.936V153.926C293.342 152.222 292.621 150.588 291.337 149.382C290.053 148.177 288.311 147.5 286.495 147.5Z" fill="#231F20"/>
<path d="M259.417 147.902V183.96H168.615C166.912 183.96 165.28 183.325 164.076 182.196C162.872 181.066 162.195 179.533 162.195 177.936V153.926C162.195 152.329 162.872 150.796 164.076 149.666C165.28 148.537 166.912 147.902 168.615 147.902H259.417Z" fill="#1561AD" fill-opacity="0.58"/>
<path d="M240.107 181.008C240.107 181.008 239.187 182.615 239.354 182.948C239.521 183.281 241.404 183.916 241.34 184.093C241.276 184.269 237.18 184.173 237.034 183.976C236.889 183.779 236.949 183.699 236.927 183.225C236.906 182.751 238.43 180.554 238.43 180.554" fill="#231F20"/>
<path d="M239.91 184.378C238.678 184.378 237.026 184.314 236.859 184.089C236.742 183.932 236.692 183.74 236.718 183.55C236.718 183.47 236.718 183.37 236.718 183.233C236.696 182.735 237.886 180.972 238.254 180.446C238.269 180.423 238.288 180.404 238.311 180.388C238.335 180.373 238.361 180.362 238.388 180.357C238.416 180.351 238.444 180.351 238.472 180.356C238.5 180.361 238.526 180.371 238.549 180.386C238.597 180.414 238.631 180.46 238.643 180.512C238.655 180.564 238.644 180.618 238.614 180.663C237.899 181.695 237.137 182.964 237.146 183.217C237.146 183.362 237.146 183.47 237.146 183.554C237.146 183.719 237.146 183.763 237.184 183.824C238.381 183.965 239.587 184.015 240.792 183.972L240.45 183.816C239.722 183.486 239.273 183.269 239.166 183.012C238.977 182.611 239.637 181.406 239.928 180.896C239.941 180.872 239.959 180.852 239.981 180.835C240.003 180.819 240.028 180.806 240.055 180.799C240.082 180.791 240.111 180.789 240.139 180.792C240.167 180.795 240.194 180.803 240.219 180.815C240.243 180.828 240.265 180.845 240.283 180.866C240.3 180.886 240.314 180.91 240.322 180.935C240.33 180.961 240.332 180.987 240.329 181.013C240.326 181.04 240.318 181.065 240.304 181.088C239.846 181.892 239.504 182.695 239.559 182.852C239.891 183.092 240.255 183.289 240.642 183.438C241.348 183.759 241.639 183.892 241.55 184.141C241.498 184.285 241.323 184.31 241.22 184.326C241.117 184.342 240.54 184.378 239.91 184.378Z" fill="#231F20"/>
<path d="M238.169 166.072L230.829 164.108L224.533 172.911C224.533 172.911 215.717 178.225 215.717 178.47C215.717 178.811 217.224 181.149 217.224 181.149C217.224 181.149 222.787 179.076 227.345 177.132C230.974 175.594 234.689 170.506 234.689 170.506L241.678 173.522L237.398 181.008L240.681 181.277C240.681 181.277 245.388 175.253 246.951 171.955C248.513 168.658 238.169 166.072 238.169 166.072Z" fill="#231F20"/>
<path d="M240.659 181.478L237.373 181.209C237.338 181.206 237.304 181.195 237.275 181.177C237.246 181.158 237.222 181.134 237.206 181.105C237.189 181.076 237.18 181.043 237.18 181.01C237.18 180.977 237.189 180.945 237.206 180.916L241.417 173.622L234.779 170.779C234.141 171.626 230.799 175.919 227.448 177.341C222.959 179.241 217.374 181.317 217.318 181.337C217.271 181.356 217.219 181.358 217.171 181.343C217.123 181.328 217.083 181.298 217.057 181.257C216.595 180.538 215.52 178.847 215.52 178.474C215.52 178.333 215.52 178.12 224.397 172.771L230.666 164.003C230.691 163.968 230.727 163.94 230.769 163.925C230.812 163.91 230.858 163.908 230.902 163.919L238.246 165.879C238.575 165.963 245.761 167.783 247.1 170.409C247.239 170.66 247.315 170.937 247.322 171.22C247.329 171.502 247.268 171.783 247.143 172.04C245.59 175.341 240.895 181.337 240.848 181.398C240.826 181.425 240.798 181.447 240.765 181.461C240.732 181.475 240.696 181.481 240.659 181.478ZM237.719 180.831L240.557 181.064C241.152 180.301 245.303 174.911 246.737 171.875C246.836 171.67 246.884 171.447 246.878 171.222C246.871 170.997 246.81 170.777 246.698 170.578C245.44 168.112 238.19 166.28 238.139 166.264L230.944 164.341L224.735 173.024C224.718 173.045 224.698 173.064 224.675 173.08C221.431 175.036 216.543 178.024 215.97 178.526C216.369 179.345 216.825 180.138 217.335 180.9C218.302 180.538 223.237 178.683 227.281 176.968C230.816 175.474 234.501 170.461 234.557 170.409C234.585 170.37 234.627 170.342 234.676 170.33C234.724 170.317 234.776 170.321 234.822 170.341L241.828 173.341C241.854 173.352 241.878 173.368 241.898 173.388C241.918 173.408 241.933 173.432 241.943 173.458C241.955 173.483 241.961 173.51 241.961 173.538C241.961 173.565 241.955 173.593 241.943 173.618L237.719 180.831Z" fill="#231F20"/>
<path d="M255.703 158.846C255.703 158.846 258.758 158.923 258.814 158.846C258.869 158.77 259.49 154.428 259.006 154.605C258.523 154.782 257.53 157.268 257.53 157.268L255.339 157.075" fill="white"/>
<path d="M257.894 159.083C257.414 159.083 256.717 159.083 255.694 159.047C255.666 159.047 255.639 159.041 255.613 159.03C255.587 159.02 255.564 159.004 255.545 158.985C255.526 158.966 255.511 158.944 255.502 158.919C255.492 158.895 255.487 158.868 255.489 158.842C255.492 158.79 255.516 158.74 255.556 158.704C255.597 158.667 255.651 158.646 255.707 158.645C256.897 158.678 258.232 158.694 258.638 158.67C258.75 158.075 259.066 155.609 258.964 154.906C258.46 155.674 258.046 156.49 257.727 157.34C257.71 157.381 257.68 157.416 257.641 157.439C257.601 157.462 257.555 157.472 257.509 157.469L255.322 157.276C255.265 157.271 255.213 157.245 255.176 157.205C255.14 157.164 255.121 157.112 255.125 157.059C255.132 157.006 255.16 156.958 255.204 156.924C255.248 156.889 255.303 156.872 255.36 156.874L257.389 157.055C257.684 156.336 258.437 154.613 258.925 154.42C258.983 154.398 259.047 154.394 259.107 154.409C259.168 154.424 259.221 154.458 259.259 154.505C259.644 154.963 259.113 158.806 258.989 158.967C258.934 159.035 258.895 159.083 257.894 159.083Z" fill="#231F20"/>
<path d="M239.705 155.199C238.34 154.633 237.043 155.89 236.281 156.806C234.274 159.152 232.661 161.854 230.902 164.381C230.902 164.381 234.689 170.554 239.936 167.449L245.739 159.196H255.12C255.12 159.196 255.15 158.545 255.12 156.914C255.12 156.882 240.18 155.392 239.705 155.199Z" fill="white"/>
<path d="M236.97 168.493C236.556 168.494 236.144 168.447 235.742 168.353C232.703 167.646 230.795 164.586 230.713 164.453C230.693 164.421 230.683 164.385 230.683 164.349C230.683 164.312 230.693 164.276 230.713 164.244C231.231 163.501 231.745 162.73 232.241 161.983C233.413 160.136 234.699 158.355 236.093 156.649C236.589 156.071 238.087 154.312 239.765 155.007C240.129 155.123 244.931 155.649 254.033 156.577C255.317 156.706 255.317 156.706 255.317 156.874C255.343 158.481 255.317 159.147 255.317 159.176C255.315 159.227 255.292 159.277 255.252 159.312C255.212 159.348 255.159 159.368 255.103 159.368H245.855L240.112 167.534C240.097 167.558 240.074 167.578 240.047 167.59C239.135 168.162 238.067 168.475 236.97 168.493V168.493ZM231.154 164.357C231.514 164.895 233.294 167.369 235.862 167.971C236.533 168.118 237.229 168.132 237.906 168.013C238.583 167.895 239.226 167.645 239.795 167.28L245.572 159.067C245.592 159.039 245.619 159.016 245.65 159C245.682 158.984 245.717 158.976 245.752 158.975H254.928C254.928 158.694 254.928 158.087 254.928 157.075L254.025 156.983C244.37 155.999 239.932 155.509 239.637 155.376C238.708 154.975 237.672 155.489 236.465 156.902C235.073 158.595 233.787 160.363 232.614 162.196C232.138 162.911 231.646 163.634 231.154 164.357V164.357Z" fill="#231F20"/>
<path d="M241.13 155.111C239.512 154.758 240.112 152.119 240.54 151.051C240.624 150.813 240.754 150.592 240.925 150.4C241.11 150.234 241.332 150.107 241.574 150.027C241.816 149.948 242.073 149.917 242.328 149.938C242.837 149.983 243.342 150.059 243.839 150.167C244.976 150.347 246.142 150.252 247.229 149.89C247.597 149.765 248.02 149.621 248.35 149.814C248.45 149.883 248.533 149.972 248.593 150.075C248.653 150.178 248.688 150.291 248.697 150.408C248.716 150.685 248.659 150.962 248.533 151.213C248.406 151.464 248.214 151.68 247.973 151.842C247.477 152.137 246.908 152.306 246.321 152.332C246.398 152.762 246.475 152.898 246.202 153.252C245.929 153.57 245.6 153.841 245.23 154.055C244.833 154.268 244.419 154.453 243.993 154.609C243.099 154.979 242.226 155.304 241.211 155.127L241.13 155.111Z" fill="white"/>
<path d="M241.793 155.376C241.585 155.376 241.378 155.359 241.173 155.324H241.083C240.88 155.284 240.689 155.201 240.525 155.082C240.36 154.963 240.226 154.811 240.133 154.637C239.551 153.625 240.013 151.826 240.338 151.023C240.432 150.76 240.577 150.516 240.766 150.304C240.973 150.117 241.22 149.974 241.49 149.883C241.76 149.793 242.047 149.757 242.333 149.778C242.695 149.798 243.054 149.848 243.407 149.926L243.873 150.01C244.974 150.183 246.104 150.091 247.156 149.741C247.584 149.605 248.05 149.444 248.44 149.685C248.565 149.771 248.669 149.881 248.743 150.009C248.817 150.137 248.86 150.279 248.868 150.424C248.891 150.734 248.829 151.044 248.688 151.325C248.547 151.607 248.332 151.849 248.063 152.031C247.608 152.319 247.079 152.491 246.531 152.529C246.577 152.677 246.583 152.834 246.55 152.985C246.516 153.136 246.444 153.277 246.339 153.396C246.048 153.733 245.699 154.023 245.307 154.252C244.989 154.428 244.657 154.581 244.314 154.71L244.04 154.822C243.34 155.15 242.575 155.338 241.793 155.376V155.376ZM242.221 150.155C242.009 150.143 241.796 150.173 241.597 150.242C241.397 150.311 241.215 150.418 241.062 150.557C240.908 150.73 240.792 150.929 240.719 151.143C240.368 152.023 240.017 153.625 240.488 154.448C240.553 154.571 240.647 154.679 240.763 154.763C240.878 154.847 241.013 154.906 241.156 154.934V154.934H241.224C242.157 155.099 242.936 154.818 243.882 154.432L244.16 154.32C244.482 154.202 244.793 154.058 245.089 153.89C245.438 153.691 245.748 153.437 246.005 153.139C246.184 152.902 246.172 152.83 246.116 152.529L246.086 152.372C246.077 152.318 246.091 152.264 246.125 152.219C246.141 152.198 246.163 152.181 246.187 152.168C246.211 152.155 246.238 152.146 246.266 152.143H246.36C246.879 152.118 247.382 151.967 247.819 151.705C248.031 151.566 248.2 151.378 248.312 151.159C248.423 150.94 248.473 150.698 248.457 150.456C248.451 150.369 248.426 150.284 248.383 150.207C248.341 150.129 248.281 150.061 248.209 150.006C247.973 149.87 247.614 150.006 247.293 150.095C246.179 150.466 244.983 150.564 243.818 150.38C243.655 150.356 243.497 150.324 243.334 150.296C243.006 150.22 242.67 150.173 242.333 150.155H242.221Z" fill="#231F20"/>
<path d="M245.478 154.356C245.478 154.356 245.594 155.621 245.346 155.746C245.097 155.87 244.721 155.509 244.721 155.509" fill="white"/>
<path d="M245.23 155.971C244.977 155.941 244.743 155.827 244.571 155.649C244.536 155.611 244.518 155.561 244.521 155.511C244.523 155.46 244.546 155.412 244.584 155.377C244.623 155.341 244.674 155.321 244.728 155.319C244.782 155.317 244.834 155.335 244.875 155.368C245.012 155.497 245.2 155.589 245.247 155.569C245.303 155.169 245.303 154.764 245.247 154.364C245.244 154.311 245.262 154.259 245.299 154.218C245.336 154.178 245.388 154.152 245.444 154.147C245.472 154.145 245.501 154.148 245.527 154.156C245.554 154.164 245.579 154.177 245.601 154.194C245.622 154.212 245.64 154.233 245.653 154.256C245.665 154.28 245.673 154.306 245.675 154.332C245.761 155.26 245.675 155.79 245.427 155.914C245.367 155.948 245.3 155.967 245.23 155.971Z" fill="#231F20"/>
<path d="M246.467 152.207C246.698 152.738 245.774 154.216 245.513 154.617C245.147 155.236 244.768 155.843 244.374 156.441C244.126 156.818 243.039 156.276 242.919 156.039L242.187 157.674C241.671 157.49 241.234 157.153 240.942 156.714C240.291 155.89 240.394 155.693 240.394 155.693L241.502 153.946C241.764 154.052 242.051 154.088 242.332 154.05C242.614 154.013 242.879 153.903 243.099 153.734C243.747 153.23 244.285 152.614 244.682 151.918C244.682 151.918 246.24 151.685 246.467 152.207Z" fill="white"/>
<path d="M242.187 157.914H242.14C241.573 157.725 241.09 157.361 240.771 156.882C240.287 156.268 240.094 155.854 240.201 155.653L241.323 153.89C241.351 153.846 241.397 153.813 241.451 153.8C241.504 153.786 241.561 153.793 241.609 153.818C241.835 153.905 242.083 153.933 242.324 153.897C242.566 153.862 242.792 153.765 242.979 153.617C243.599 153.133 244.113 152.541 244.494 151.874C244.509 151.847 244.53 151.823 244.556 151.805C244.582 151.787 244.612 151.775 244.644 151.77C244.931 151.717 246.386 151.5 246.664 152.139C246.886 152.649 246.364 153.637 245.769 154.629L245.701 154.746C245.337 155.356 244.952 155.971 244.558 156.573C244.503 156.653 244.424 156.716 244.332 156.756C244.239 156.796 244.137 156.81 244.036 156.798C243.661 156.763 243.302 156.635 242.996 156.428L242.384 157.798C242.367 157.833 242.339 157.863 242.304 157.884C242.269 157.904 242.229 157.915 242.187 157.914V157.914ZM240.604 155.794C240.709 156.105 240.883 156.392 241.113 156.637C241.363 156.97 241.691 157.245 242.072 157.441L242.722 155.991C242.737 155.956 242.762 155.925 242.795 155.903C242.827 155.881 242.866 155.868 242.906 155.866C242.947 155.864 242.988 155.873 243.024 155.893C243.059 155.912 243.088 155.94 243.107 155.975C243.376 156.199 243.713 156.339 244.07 156.376C244.109 156.376 244.173 156.376 244.194 156.34C244.584 155.746 244.969 155.135 245.324 154.529L245.397 154.412C246.09 153.256 246.386 152.537 246.253 152.272C246.12 152.007 245.397 152.043 244.802 152.127C244.401 152.82 243.859 153.431 243.206 153.926C242.978 154.091 242.713 154.204 242.43 154.256C242.148 154.308 241.856 154.296 241.58 154.224L240.604 155.794Z" fill="#231F20"/>
<path d="M244.627 156.003C244.426 155.944 244.254 155.82 244.142 155.653C244.03 155.486 243.985 155.286 244.015 155.091" fill="white"/>
<path d="M244.627 156.192H244.575C244.326 156.12 244.111 155.968 243.97 155.762C243.829 155.556 243.77 155.31 243.805 155.067C243.809 155.014 243.836 154.964 243.88 154.93C243.923 154.895 243.979 154.878 244.036 154.882C244.093 154.886 244.145 154.912 244.182 154.952C244.219 154.993 244.237 155.046 244.233 155.099C244.205 155.248 244.235 155.401 244.319 155.531C244.402 155.66 244.533 155.756 244.687 155.802C244.743 155.809 244.795 155.837 244.83 155.879C244.865 155.922 244.88 155.976 244.873 156.029C244.865 156.082 244.836 156.13 244.79 156.163C244.745 156.196 244.688 156.21 244.631 156.204L244.627 156.192Z" fill="#231F20"/>
<path d="M243.989 154.107C244.058 153.943 244.079 153.764 244.049 153.589C244.046 153.452 244.021 153.317 243.976 153.187C243.951 153.123 243.912 153.065 243.861 153.017C243.81 152.968 243.749 152.931 243.681 152.906C243.618 152.891 243.552 152.889 243.488 152.899C243.424 152.909 243.363 152.932 243.308 152.966C243.201 153.035 243.112 153.126 243.047 153.232C242.902 153.458 242.823 153.716 242.817 153.981C242.812 154.245 242.881 154.506 243.017 154.738V154.681" fill="white"/>
<path d="M242.983 154.914C242.952 154.916 242.921 154.909 242.894 154.895C242.867 154.881 242.844 154.86 242.829 154.834C242.673 154.571 242.595 154.273 242.602 153.972C242.608 153.67 242.7 153.376 242.868 153.119C242.951 152.99 243.062 152.878 243.193 152.79C243.273 152.741 243.363 152.709 243.458 152.695C243.552 152.681 243.649 152.686 243.741 152.709C243.84 152.742 243.929 152.795 244.003 152.865C244.077 152.934 244.134 153.018 244.169 153.111C244.22 153.267 244.246 153.43 244.246 153.593C244.281 153.805 244.251 154.022 244.16 154.22C244.133 154.266 244.087 154.301 244.033 154.317C243.979 154.333 243.92 154.328 243.869 154.304C243.843 154.288 243.82 154.267 243.803 154.242C243.785 154.217 243.774 154.189 243.769 154.16C243.764 154.131 243.766 154.101 243.775 154.072C243.783 154.044 243.798 154.017 243.818 153.995C243.869 153.866 243.882 153.728 243.856 153.593C243.855 153.477 243.835 153.362 243.796 153.252C243.785 153.215 243.765 153.181 243.737 153.152C243.71 153.124 243.676 153.102 243.638 153.087C243.605 153.08 243.571 153.079 243.538 153.085C243.504 153.091 243.473 153.104 243.445 153.123C243.365 153.174 243.299 153.243 243.253 153.324C243.138 153.504 243.07 153.707 243.056 153.917C243.042 154.127 243.081 154.336 243.172 154.529C243.201 154.552 243.222 154.582 243.231 154.617C243.245 154.668 243.241 154.721 243.219 154.769C243.198 154.817 243.16 154.857 243.112 154.882C243.072 154.901 243.028 154.912 242.983 154.914V154.914Z" fill="#231F20"/>
<path d="M242.919 156.079C242.653 155.818 242.473 155.49 242.401 155.135C242.401 155.135 241.892 156.095 242.594 156.806L242.919 156.079Z" fill="#231F20"/>
<path d="M242.594 157.007C242.564 157.007 242.535 157.001 242.508 156.99C242.481 156.979 242.456 156.963 242.435 156.943C241.644 156.139 242.187 155.091 242.209 155.047C242.23 155.008 242.264 154.977 242.305 154.957C242.347 154.938 242.394 154.931 242.44 154.938C242.485 154.946 242.527 154.967 242.559 154.999C242.591 155.031 242.61 155.072 242.615 155.115C242.682 155.419 242.841 155.698 243.073 155.918C243.103 155.946 243.122 155.982 243.13 156.021C243.138 156.059 243.133 156.099 243.116 156.135L242.791 156.862C242.776 156.893 242.754 156.921 242.726 156.942C242.697 156.963 242.664 156.977 242.628 156.983L242.594 157.007ZM242.44 155.802C242.414 156.007 242.446 156.215 242.534 156.404L242.658 156.135C242.576 156.032 242.503 155.924 242.44 155.81V155.802Z" fill="#231F20"/>
<path d="M245.44 153.803C245.532 153.693 245.569 153.576 245.523 153.542C245.476 153.507 245.364 153.568 245.271 153.678C245.179 153.788 245.142 153.905 245.188 153.94C245.235 153.974 245.348 153.913 245.44 153.803Z" fill="#231F20"/>
<path d="M245.654 153.866C245.62 153.867 245.586 153.86 245.556 153.845C245.526 153.83 245.501 153.808 245.483 153.782L245.136 153.348C245.119 153.327 245.108 153.303 245.101 153.278C245.094 153.252 245.093 153.226 245.098 153.2C245.102 153.174 245.112 153.15 245.126 153.127C245.141 153.105 245.16 153.086 245.183 153.071C245.228 153.039 245.285 153.025 245.342 153.033C245.398 153.04 245.449 153.068 245.483 153.111L245.825 153.545C245.842 153.566 245.854 153.59 245.86 153.616C245.867 153.642 245.868 153.668 245.864 153.695C245.859 153.721 245.849 153.746 245.835 153.768C245.82 153.791 245.801 153.81 245.778 153.826C245.742 153.851 245.699 153.865 245.654 153.866Z" fill="#231F20"/>
<path d="M216.762 178.128C216.762 178.128 213.359 180.024 213.359 180.325C213.359 180.627 212.983 180.466 214.151 182.767C214.643 183.743 216.911 184.374 216.68 183.639C216.021 181.522 216.064 181.297 216.064 181.297L218.769 180.277" fill="#231F20"/>
<path d="M216.321 184.161C215.597 184.161 214.339 183.615 213.954 182.852C212.97 180.904 213.051 180.651 213.128 180.406C213.133 180.379 213.133 180.352 213.128 180.325C213.128 180.201 213.128 179.924 216.633 177.956C216.683 177.929 216.741 177.922 216.796 177.935C216.852 177.949 216.899 177.982 216.928 178.028C216.957 178.074 216.964 178.128 216.95 178.179C216.935 178.231 216.9 178.274 216.851 178.301C215.371 179.129 213.757 180.112 213.556 180.366C213.551 180.418 213.54 180.469 213.522 180.518C213.479 180.651 213.411 180.872 214.326 182.679C214.579 183.181 215.413 183.615 216.038 183.731C216.178 183.77 216.327 183.77 216.466 183.731C216.466 183.731 216.466 183.731 216.466 183.691C216.174 182.901 215.966 182.086 215.846 181.257C215.852 181.224 215.867 181.192 215.889 181.166C215.912 181.139 215.941 181.118 215.974 181.105L218.679 180.088C218.731 180.068 218.79 180.069 218.842 180.089C218.894 180.109 218.935 180.148 218.957 180.197C218.978 180.246 218.978 180.302 218.957 180.351C218.935 180.401 218.894 180.441 218.841 180.462L216.274 181.422C216.431 182.15 216.63 182.87 216.869 183.579C216.891 183.63 216.902 183.685 216.9 183.74C216.899 183.795 216.885 183.85 216.86 183.9C216.835 183.95 216.8 183.995 216.755 184.032C216.711 184.068 216.659 184.096 216.603 184.113C216.512 184.143 216.417 184.159 216.321 184.161V184.161Z" fill="#231F20"/>
<path d="M255.703 159.866C255.703 159.866 258.758 159.943 258.814 159.866C258.869 159.79 259.76 155.191 259.276 155.38C258.792 155.569 257.791 157.983 257.791 157.983L255.339 158.095" fill="white"/>
<path d="M257.894 160.103C257.419 160.103 256.721 160.103 255.694 160.067C255.638 160.065 255.585 160.042 255.547 160.004C255.508 159.966 255.487 159.915 255.489 159.862C255.488 159.836 255.493 159.809 255.504 159.784C255.515 159.76 255.531 159.737 255.552 159.719C255.572 159.7 255.596 159.686 255.623 159.677C255.65 159.668 255.678 159.664 255.707 159.666C256.905 159.694 258.245 159.71 258.647 159.69C258.934 158.376 259.122 157.044 259.208 155.706C258.716 156.447 258.307 157.235 257.988 158.055C257.973 158.091 257.947 158.123 257.914 158.145C257.881 158.168 257.841 158.182 257.8 158.184L255.352 158.296C255.323 158.297 255.295 158.293 255.269 158.285C255.242 158.276 255.218 158.262 255.197 158.244C255.155 158.209 255.13 158.159 255.127 158.105C255.124 158.052 255.144 158 255.182 157.96C255.22 157.921 255.273 157.897 255.33 157.894L257.641 157.786C257.932 157.095 258.698 155.376 259.195 155.195C259.251 155.172 259.313 155.168 259.372 155.182C259.431 155.197 259.484 155.23 259.52 155.276C259.948 155.782 259.011 159.955 258.989 159.983C258.968 160.011 258.899 160.103 257.894 160.103Z" fill="#231F20"/>
<path d="M242.919 159.324L240.557 164.337L241.922 165.806L243.445 164.337V158.882L242.919 159.324Z" fill="#231F20"/>
<path d="M239.059 155.971L256.4 157.694L255.904 160.63C255.904 160.63 241.781 160.939 238.31 159.899" fill="white"/>
<path d="M251.209 160.874C246.762 160.874 240.463 160.75 238.246 160.091C238.218 160.083 238.191 160.07 238.169 160.053C238.146 160.036 238.127 160.014 238.113 159.99C238.099 159.966 238.091 159.939 238.088 159.912C238.085 159.884 238.087 159.857 238.096 159.83C238.104 159.804 238.118 159.779 238.137 159.758C238.155 159.737 238.178 159.719 238.204 159.706C238.23 159.693 238.258 159.685 238.287 159.682C238.316 159.679 238.346 159.682 238.374 159.69C241.584 160.646 254.076 160.445 255.72 160.413L256.148 157.85L239.029 156.151C239.001 156.149 238.973 156.141 238.949 156.128C238.924 156.116 238.902 156.099 238.884 156.078C238.866 156.058 238.852 156.034 238.844 156.009C238.836 155.983 238.833 155.957 238.836 155.93C238.839 155.904 238.847 155.878 238.861 155.855C238.874 155.832 238.892 155.811 238.914 155.794C238.936 155.778 238.961 155.765 238.988 155.757C239.015 155.75 239.044 155.747 239.072 155.75L256.417 157.473C256.475 157.481 256.527 157.509 256.563 157.553C256.58 157.574 256.593 157.599 256.601 157.625C256.608 157.651 256.61 157.679 256.606 157.706L256.109 160.642C256.101 160.688 256.076 160.731 256.037 160.762C255.999 160.793 255.95 160.81 255.899 160.81C255.698 160.822 253.76 160.874 251.209 160.874Z" fill="#231F20"/>
<path d="M178.749 142H179.583L180.366 137.452L180.414 137.179L180.458 137.447L181.236 142H182.066L182.844 135.602H182.075L181.614 140.005L181.587 140.269L181.539 140.009L180.761 135.602H180.054L179.28 140.005L179.232 140.269L179.206 140.014L178.744 135.602H177.971L178.749 142ZM183.591 139.579V139.675C183.591 140.018 183.641 140.336 183.741 140.629C183.84 140.922 183.984 141.177 184.171 141.394C184.356 141.61 184.582 141.78 184.848 141.903C185.118 142.026 185.421 142.088 185.758 142.088C186.092 142.088 186.392 142.026 186.659 141.903C186.925 141.78 187.152 141.61 187.34 141.394C187.524 141.177 187.667 140.922 187.766 140.629C187.866 140.336 187.916 140.018 187.916 139.675V139.579C187.916 139.236 187.866 138.918 187.766 138.625C187.667 138.329 187.524 138.073 187.34 137.856C187.152 137.639 186.924 137.469 186.654 137.346C186.388 137.22 186.086 137.157 185.749 137.157C185.415 137.157 185.115 137.22 184.848 137.346C184.582 137.469 184.356 137.639 184.171 137.856C183.984 138.073 183.84 138.329 183.741 138.625C183.641 138.918 183.591 139.236 183.591 139.579ZM184.404 139.675V139.579C184.404 139.347 184.432 139.126 184.488 138.915C184.543 138.701 184.628 138.514 184.743 138.353C184.854 138.191 184.993 138.064 185.16 137.97C185.327 137.874 185.523 137.825 185.749 137.825C185.975 137.825 186.171 137.874 186.338 137.97C186.508 138.064 186.65 138.191 186.764 138.353C186.875 138.514 186.959 138.701 187.015 138.915C187.073 139.126 187.103 139.347 187.103 139.579V139.675C187.103 139.91 187.075 140.134 187.019 140.348C186.963 140.559 186.88 140.745 186.769 140.906C186.654 141.067 186.512 141.194 186.342 141.288C186.175 141.382 185.98 141.429 185.758 141.429C185.532 141.429 185.334 141.382 185.165 141.288C184.995 141.194 184.854 141.067 184.743 140.906C184.628 140.745 184.543 140.559 184.488 140.348C184.432 140.134 184.404 139.91 184.404 139.675ZM192.341 137.157C191.995 137.157 191.686 137.233 191.414 137.386C191.144 137.535 190.913 137.74 190.719 138.001L190.715 137.882L190.68 137.245H189.906V142H190.724V138.95C190.776 138.804 190.842 138.672 190.921 138.555C191.003 138.435 191.099 138.333 191.207 138.251C191.327 138.158 191.468 138.087 191.629 138.041C191.79 137.991 191.97 137.966 192.169 137.966C192.325 137.966 192.473 137.975 192.613 137.992C192.757 138.007 192.908 138.032 193.066 138.067L193.176 137.271C193.094 137.236 192.971 137.208 192.807 137.188C192.646 137.167 192.49 137.157 192.341 137.157ZM196.054 139.781L197.799 142H198.832L196.612 139.227L198.537 137.245H197.548L195.988 138.81L195.457 139.381V135.25H194.639V142H195.457V140.356L196.054 139.781ZM205.568 137.245V137.953H207.186V141.297H205.568V142H209.55V141.297H207.999V137.245H205.568ZM207.08 135.997C207.08 136.129 207.12 136.239 207.199 136.327C207.281 136.415 207.404 136.458 207.568 136.458C207.729 136.458 207.851 136.415 207.933 136.327C208.015 136.239 208.056 136.129 208.056 135.997C208.056 135.924 208.044 135.856 208.021 135.795C207.997 135.733 207.962 135.682 207.915 135.641C207.877 135.603 207.829 135.574 207.77 135.553C207.711 135.53 207.644 135.518 207.568 135.518C207.492 135.518 207.423 135.53 207.361 135.553C207.303 135.574 207.254 135.603 207.216 135.641C207.169 135.685 207.134 135.738 207.111 135.799C207.09 135.861 207.08 135.927 207.08 135.997ZM210.846 142H211.659V138.59C211.715 138.487 211.779 138.394 211.853 138.309C211.929 138.224 212.011 138.149 212.099 138.084C212.207 138.011 212.326 137.954 212.455 137.913C212.583 137.869 212.723 137.847 212.872 137.847C213.045 137.847 213.197 137.868 213.329 137.909C213.464 137.95 213.578 138.016 213.672 138.106C213.763 138.197 213.832 138.316 213.878 138.462C213.925 138.609 213.949 138.788 213.949 138.999V142H214.762V138.981C214.762 138.665 214.722 138.392 214.643 138.164C214.567 137.932 214.457 137.742 214.313 137.592C214.17 137.443 213.996 137.333 213.791 137.263C213.588 137.192 213.363 137.157 213.114 137.157C212.929 137.16 212.753 137.188 212.586 137.241C212.422 137.291 212.27 137.362 212.129 137.456C212.036 137.518 211.946 137.591 211.861 137.676C211.779 137.758 211.703 137.849 211.633 137.948L211.576 137.245H210.846V142ZM222.544 139.434H223.806C224.093 139.431 224.364 139.387 224.619 139.302C224.876 139.217 225.102 139.094 225.295 138.933C225.489 138.771 225.641 138.574 225.752 138.339C225.867 138.102 225.924 137.83 225.924 137.522C225.924 137.214 225.867 136.942 225.752 136.705C225.641 136.467 225.489 136.268 225.295 136.107C225.102 135.946 224.876 135.823 224.619 135.738C224.364 135.653 224.093 135.607 223.806 135.602H221.731V142H222.544V139.434ZM222.544 138.766V136.27H223.806C223.993 136.272 224.166 136.303 224.324 136.362C224.485 136.42 224.625 136.504 224.742 136.612C224.856 136.721 224.945 136.853 225.01 137.008C225.077 137.163 225.111 137.337 225.111 137.531C225.111 137.724 225.077 137.897 225.01 138.049C224.945 138.199 224.854 138.326 224.737 138.432C224.62 138.537 224.482 138.619 224.324 138.678C224.166 138.733 223.993 138.763 223.806 138.766H222.544ZM226.833 139.579V139.675C226.833 140.018 226.883 140.336 226.983 140.629C227.083 140.922 227.226 141.177 227.414 141.394C227.598 141.61 227.824 141.78 228.09 141.903C228.36 142.026 228.663 142.088 229 142.088C229.334 142.088 229.634 142.026 229.901 141.903C230.167 141.78 230.395 141.61 230.582 141.394C230.767 141.177 230.909 140.922 231.008 140.629C231.108 140.336 231.158 140.018 231.158 139.675V139.579C231.158 139.236 231.108 138.918 231.008 138.625C230.909 138.329 230.767 138.073 230.582 137.856C230.395 137.639 230.166 137.469 229.896 137.346C229.63 137.22 229.328 137.157 228.991 137.157C228.657 137.157 228.357 137.22 228.09 137.346C227.824 137.469 227.598 137.639 227.414 137.856C227.226 138.073 227.083 138.329 226.983 138.625C226.883 138.918 226.833 139.236 226.833 139.579ZM227.646 139.675V139.579C227.646 139.347 227.674 139.126 227.73 138.915C227.786 138.701 227.871 138.514 227.985 138.353C228.096 138.191 228.235 138.064 228.402 137.97C228.569 137.874 228.766 137.825 228.991 137.825C229.217 137.825 229.413 137.874 229.58 137.97C229.75 138.064 229.892 138.191 230.006 138.353C230.118 138.514 230.201 138.701 230.257 138.915C230.315 139.126 230.345 139.347 230.345 139.579V139.675C230.345 139.91 230.317 140.134 230.261 140.348C230.206 140.559 230.122 140.745 230.011 140.906C229.896 141.067 229.754 141.194 229.584 141.288C229.417 141.382 229.223 141.429 229 141.429C228.774 141.429 228.577 141.382 228.407 141.288C228.237 141.194 228.096 141.067 227.985 140.906C227.871 140.745 227.786 140.559 227.73 140.348C227.674 140.134 227.646 139.91 227.646 139.675ZM235.583 137.157C235.237 137.157 234.928 137.233 234.656 137.386C234.386 137.535 234.155 137.74 233.961 138.001L233.957 137.882L233.922 137.245H233.148V142H233.966V138.95C234.019 138.804 234.084 138.672 234.164 138.555C234.246 138.435 234.341 138.333 234.449 138.251C234.569 138.158 234.71 138.087 234.871 138.041C235.032 137.991 235.212 137.966 235.412 137.966C235.567 137.966 235.715 137.975 235.855 137.992C235.999 138.007 236.15 138.032 236.308 138.067L236.418 137.271C236.336 137.236 236.213 137.208 236.049 137.188C235.888 137.167 235.732 137.157 235.583 137.157ZM237.723 139.583V139.675C237.723 140.015 237.767 140.333 237.855 140.629C237.943 140.922 238.069 141.177 238.233 141.394C238.394 141.61 238.592 141.78 238.826 141.903C239.061 142.026 239.323 142.088 239.613 142.088C239.786 142.088 239.947 142.069 240.096 142.031C240.246 141.996 240.382 141.944 240.505 141.877C240.584 141.833 240.657 141.782 240.725 141.723C240.795 141.665 240.861 141.6 240.922 141.53V141.938C240.922 142.144 240.893 142.325 240.834 142.483C240.776 142.642 240.692 142.773 240.584 142.879C240.473 142.987 240.339 143.069 240.184 143.125C240.029 143.181 239.854 143.208 239.661 143.208C239.553 143.208 239.444 143.197 239.336 143.173C239.228 143.153 239.119 143.118 239.011 143.068C238.902 143.018 238.795 142.951 238.69 142.866C238.584 142.784 238.482 142.683 238.382 142.562L237.96 143.05C238.069 143.206 238.198 143.336 238.347 143.441C238.5 143.547 238.658 143.63 238.822 143.692C238.983 143.756 239.143 143.802 239.301 143.828C239.459 143.857 239.6 143.872 239.723 143.872C240.021 143.872 240.294 143.828 240.54 143.74C240.786 143.652 240.999 143.523 241.177 143.354C241.353 143.184 241.489 142.977 241.586 142.734C241.686 142.491 241.735 142.212 241.735 141.899V137.245H240.997L240.958 137.764C240.902 137.693 240.842 137.629 240.777 137.57C240.716 137.512 240.65 137.46 240.58 137.417C240.451 137.332 240.306 137.267 240.145 137.223C239.986 137.179 239.812 137.157 239.622 137.157C239.326 137.157 239.061 137.217 238.826 137.337C238.592 137.458 238.393 137.625 238.229 137.838C238.064 138.052 237.938 138.309 237.851 138.607C237.766 138.903 237.723 139.229 237.723 139.583ZM238.536 139.675V139.583C238.536 139.352 238.56 139.132 238.606 138.924C238.656 138.713 238.734 138.527 238.839 138.366C238.942 138.208 239.074 138.082 239.235 137.988C239.399 137.894 239.595 137.847 239.824 137.847C239.958 137.847 240.082 137.865 240.193 137.9C240.304 137.932 240.405 137.978 240.496 138.036C240.587 138.098 240.667 138.169 240.738 138.251C240.808 138.333 240.87 138.424 240.922 138.524V140.704C240.87 140.806 240.808 140.9 240.738 140.985C240.667 141.07 240.588 141.143 240.5 141.205C240.41 141.266 240.307 141.314 240.193 141.35C240.082 141.382 239.956 141.398 239.815 141.398C239.589 141.398 239.396 141.353 239.235 141.262C239.074 141.168 238.942 141.042 238.839 140.884C238.734 140.726 238.656 140.542 238.606 140.334C238.56 140.126 238.536 139.907 238.536 139.675ZM246.394 137.157C246.048 137.157 245.739 137.233 245.466 137.386C245.197 137.535 244.965 137.74 244.772 138.001L244.768 137.882L244.732 137.245H243.959V142H244.776V138.95C244.829 138.804 244.895 138.672 244.974 138.555C245.056 138.435 245.151 138.333 245.26 138.251C245.38 138.158 245.521 138.087 245.682 138.041C245.843 137.991 246.023 137.966 246.222 137.966C246.377 137.966 246.525 137.975 246.666 137.992C246.81 138.007 246.96 138.032 247.119 138.067L247.229 137.271C247.146 137.236 247.023 137.208 246.859 137.188C246.698 137.167 246.543 137.157 246.394 137.157ZM250.784 142.088C251.247 142.088 251.635 141.996 251.948 141.811C252.265 141.624 252.502 141.41 252.66 141.169L252.164 140.783C252.014 140.976 251.827 141.131 251.601 141.249C251.375 141.366 251.118 141.424 250.828 141.424C250.608 141.424 250.407 141.383 250.226 141.301C250.044 141.219 249.889 141.106 249.76 140.963C249.634 140.828 249.534 140.673 249.461 140.497C249.391 140.321 249.345 140.118 249.325 139.886V139.855H252.722V139.491C252.722 139.16 252.679 138.852 252.594 138.568C252.512 138.284 252.386 138.036 252.216 137.825C252.046 137.617 251.833 137.455 251.575 137.337C251.32 137.217 251.021 137.157 250.678 137.157C250.406 137.157 250.139 137.213 249.878 137.324C249.621 137.436 249.391 137.595 249.188 137.803C248.983 138.014 248.819 138.272 248.696 138.577C248.573 138.878 248.512 139.221 248.512 139.605V139.79C248.512 140.121 248.567 140.427 248.679 140.708C248.79 140.989 248.945 141.232 249.145 141.438C249.344 141.643 249.583 141.802 249.861 141.917C250.142 142.031 250.45 142.088 250.784 142.088ZM250.678 137.825C250.886 137.825 251.065 137.863 251.214 137.939C251.367 138.016 251.493 138.115 251.592 138.238C251.692 138.361 251.77 138.508 251.825 138.678C251.881 138.845 251.909 139.001 251.909 139.148V139.188H249.351C249.383 138.968 249.439 138.774 249.518 138.607C249.6 138.438 249.7 138.294 249.817 138.177C249.934 138.062 250.066 137.976 250.212 137.917C250.359 137.856 250.514 137.825 250.678 137.825ZM257.248 140.739C257.248 140.815 257.233 140.887 257.204 140.954C257.175 141.021 257.132 141.083 257.077 141.139C256.986 141.229 256.86 141.301 256.699 141.354C256.538 141.404 256.349 141.429 256.132 141.429C255.994 141.429 255.855 141.414 255.714 141.385C255.574 141.355 255.446 141.306 255.332 141.235C255.215 141.165 255.117 141.073 255.038 140.958C254.961 140.844 254.917 140.704 254.906 140.537H254.093C254.093 140.739 254.138 140.934 254.229 141.121C254.323 141.309 254.458 141.473 254.633 141.613C254.806 141.757 255.019 141.873 255.271 141.96C255.522 142.045 255.81 142.088 256.132 142.088C256.413 142.088 256.672 142.054 256.91 141.987C257.147 141.919 257.351 141.824 257.521 141.701C257.69 141.578 257.822 141.43 257.916 141.257C258.013 141.084 258.061 140.893 258.061 140.682C258.061 140.485 258.019 140.312 257.934 140.163C257.852 140.014 257.731 139.882 257.573 139.768C257.415 139.656 257.22 139.561 256.989 139.482C256.757 139.4 256.495 139.328 256.202 139.267C255.979 139.223 255.795 139.177 255.648 139.13C255.505 139.083 255.391 139.031 255.306 138.972C255.218 138.914 255.156 138.848 255.121 138.774C255.086 138.701 255.068 138.618 255.068 138.524C255.068 138.433 255.09 138.345 255.134 138.26C255.178 138.175 255.244 138.101 255.332 138.036C255.417 137.972 255.524 137.92 255.653 137.882C255.785 137.844 255.937 137.825 256.11 137.825C256.277 137.825 256.426 137.849 256.558 137.896C256.693 137.942 256.807 138.004 256.901 138.08C256.995 138.156 257.068 138.244 257.121 138.344C257.173 138.44 257.2 138.54 257.2 138.643H258.013C258.013 138.435 257.967 138.241 257.876 138.062C257.789 137.881 257.663 137.723 257.499 137.588C257.334 137.453 257.135 137.348 256.901 137.271C256.667 137.195 256.403 137.157 256.11 137.157C255.837 137.157 255.587 137.194 255.358 137.267C255.133 137.34 254.938 137.44 254.774 137.566C254.61 137.692 254.482 137.84 254.392 138.01C254.301 138.177 254.255 138.357 254.255 138.55C254.255 138.747 254.299 138.919 254.387 139.069C254.475 139.215 254.6 139.343 254.761 139.451C254.919 139.562 255.109 139.658 255.332 139.737C255.558 139.816 255.807 139.883 256.079 139.939C256.302 139.983 256.488 140.033 256.637 140.088C256.787 140.141 256.907 140.2 256.998 140.264C257.088 140.329 257.153 140.4 257.191 140.479C257.229 140.556 257.248 140.642 257.248 140.739ZM262.653 140.739C262.653 140.815 262.639 140.887 262.609 140.954C262.58 141.021 262.538 141.083 262.482 141.139C262.391 141.229 262.265 141.301 262.104 141.354C261.943 141.404 261.754 141.429 261.537 141.429C261.399 141.429 261.26 141.414 261.12 141.385C260.979 141.355 260.852 141.306 260.737 141.235C260.62 141.165 260.522 141.073 260.443 140.958C260.367 140.844 260.323 140.704 260.311 140.537H259.498C259.498 140.739 259.543 140.934 259.634 141.121C259.728 141.309 259.863 141.473 260.039 141.613C260.211 141.757 260.424 141.873 260.676 141.96C260.928 142.045 261.215 142.088 261.537 142.088C261.818 142.088 262.078 142.054 262.315 141.987C262.552 141.919 262.756 141.824 262.926 141.701C263.096 141.578 263.228 141.43 263.321 141.257C263.418 141.084 263.466 140.893 263.466 140.682C263.466 140.485 263.424 140.312 263.339 140.163C263.257 140.014 263.137 139.882 262.979 139.768C262.82 139.656 262.625 139.561 262.394 139.482C262.163 139.4 261.9 139.328 261.607 139.267C261.385 139.223 261.2 139.177 261.054 139.13C260.91 139.083 260.796 139.031 260.711 138.972C260.623 138.914 260.562 138.848 260.526 138.774C260.491 138.701 260.474 138.618 260.474 138.524C260.474 138.433 260.496 138.345 260.54 138.26C260.583 138.175 260.649 138.101 260.737 138.036C260.822 137.972 260.929 137.92 261.058 137.882C261.19 137.844 261.342 137.825 261.515 137.825C261.682 137.825 261.832 137.849 261.963 137.896C262.098 137.942 262.212 138.004 262.306 138.08C262.4 138.156 262.473 138.244 262.526 138.344C262.579 138.44 262.605 138.54 262.605 138.643H263.418C263.418 138.435 263.373 138.241 263.282 138.062C263.194 137.881 263.068 137.723 262.904 137.588C262.74 137.453 262.541 137.348 262.306 137.271C262.072 137.195 261.808 137.157 261.515 137.157C261.243 137.157 260.992 137.194 260.764 137.267C260.538 137.34 260.343 137.44 260.179 137.566C260.015 137.692 259.888 137.84 259.797 138.01C259.706 138.177 259.661 138.357 259.661 138.55C259.661 138.747 259.705 138.919 259.792 139.069C259.88 139.215 260.005 139.343 260.166 139.451C260.324 139.562 260.515 139.658 260.737 139.737C260.963 139.816 261.212 139.883 261.484 139.939C261.707 139.983 261.893 140.033 262.042 140.088C262.192 140.141 262.312 140.2 262.403 140.264C262.494 140.329 262.558 140.4 262.596 140.479C262.634 140.556 262.653 140.642 262.653 140.739ZM266.314 141.473C266.314 141.643 266.367 141.788 266.472 141.908C266.581 142.025 266.74 142.083 266.951 142.083C267.159 142.083 267.319 142.025 267.43 141.908C267.542 141.791 267.597 141.646 267.597 141.473C267.597 141.297 267.542 141.149 267.43 141.029C267.322 140.906 267.162 140.844 266.951 140.844C266.737 140.844 266.578 140.906 266.472 141.029C266.367 141.152 266.314 141.3 266.314 141.473ZM271.719 141.473C271.719 141.643 271.772 141.788 271.877 141.908C271.986 142.025 272.146 142.083 272.356 142.083C272.564 142.083 272.724 142.025 272.835 141.908C272.947 141.791 273.002 141.646 273.002 141.473C273.002 141.297 272.947 141.149 272.835 141.029C272.727 140.906 272.567 140.844 272.356 140.844C272.143 140.844 271.983 140.906 271.877 141.029C271.772 141.152 271.719 141.3 271.719 141.473ZM277.125 141.473C277.125 141.643 277.177 141.788 277.283 141.908C277.391 142.025 277.551 142.083 277.762 142.083C277.97 142.083 278.129 142.025 278.241 141.908C278.352 141.791 278.408 141.646 278.408 141.473C278.408 141.297 278.352 141.149 278.241 141.029C278.132 140.906 277.973 140.844 277.762 140.844C277.548 140.844 277.388 140.906 277.283 141.029C277.177 141.152 277.125 141.3 277.125 141.473Z" fill="#D1D3D4"/>
</svg>
